<svg version="1.1" xmlns="http://www.w3.org/2000/svg" style="display: block;" viewBox="0 0 2560 2560" width="1664" height="2560" preserveAspectRatio="none" xmlns:c2pa="http://c2pa.org/manifest"><metadata><c2pa:manifest>AAAMZ2p1bWIAAAAeanVtZGMycGEAEQAQgAAAqgA4m3EDYzJwYQAAAAxBanVtYgAAAEdqdW1kYzJtYQARABCAAACqADibcQN1cm46YzJwYTpmNGFmNDNhZS04NTEwLTQwMjctOTc5MS02N2JkN2U3NDc3YWIAAAAB4mp1bWIAAAApanVtZGMyYXMAEQAQgAAAqgA4m3EDYzJwYS5hc3NlcnRpb25zAAAAAO1qdW1iAAAAQWp1bWRjYm9yABEAEIAAAKoAOJtxE2MycGEuYWN0aW9ucy52MgAAAAAYYzJzaE36OmbzsrLdBXLR/peY8vcAAACkY2JvcqFnYWN0aW9uc4GjZmFjdGlvbmxjMnBhLmNyZWF0ZWRxZGlnaXRhbFNvdXJjZVR5cGV4Rmh0dHA6Ly9jdi5pcHRjLm9yZy9uZXdzY29kZXMvZGlnaXRhbHNvdXJjZXR5cGUvdHJhaW5lZEFsZ29yaXRobWljTWVkaWFrZGVzY3JpcHRpb252Q3JlYXRlZCBieSBSZWNyYWZ0IEFJLgAAAMRqdW1iAAAAQGp1bWRjYm9yABEAEIAAAKoAOJtxE2MycGEuaGFzaC5kYXRhAAAAABhjMnNoI5r5jnyzEgBxC4PCFKL7IwAAAHxjYm9ypWpleGNsdXNpb25zgaJlc3RhcnQY22ZsZW5ndGgZEIxkbmFtZW5qdW1iZiBtYW5pZmVzdGNhbGdmc2hhMjU2ZGhhc2hYIE1WXFrr4c9wUvDfjwjm28U9tZ0nOVn7/CJeUlF2SmV1Y3BhZEkAAAAAAAAAAAAAAAI0anVtYgAAACdqdW1kYzJjbAARABCAAACqADibcQNjMnBhLmNsYWltLnYyAAAAAgVjYm9ypmppbnN0YW5jZUlEeCx4bXA6aWlkOjI2ZDA0NTUyLTZjOGEtNDA0OS1iNWY1LWZiZDdlNGU3OWE4ZnRjbGFpbV9nZW5lcmF0b3JfaW5mb6NkbmFtZWpyZWNyYWZ0LmFpZ3ZlcnNpb254KDgxY2U4MmUyYzVjM2NiZmJlOGM2ZmJlMTc5ZDVmOGQ5MWM0MDljZTF3b3JnLmNvbnRlbnRhdXRoLmMycGFfcnNmMC45MC43aXNpZ25hdHVyZXhNc2VsZiNqdW1iZj0vYzJwYS91cm46YzJwYTpmNGFmNDNhZS04NTEwLTQwMjctOTc5MS02N2JkN2U3NDc3YWIvYzJwYS5zaWduYXR1cmVyY3JlYXRlZF9hc3NlcnRpb25zgqJjdXJseCpzZWxmI2p1bWJmPWMycGEuYXNzZXJ0aW9ucy9jMnBhLmFjdGlvbnMudjJkaGFzaFggSpkZJQ715ffDJTqHoeLiwpT/C2ArZeJhk6kLFQlS0uuiY3VybHgpc2VsZiNqdW1iZj1jMnBhLmFzc2VydGlvbnMvYzJwYS5oYXNoLmRhdGFkaGFzaFgggAYawi7h38nP6iSd7P/qR2WbZwLecCOPn/5fcR9PkP1oZGM6dGl0bGV4GlJlY3JhZnQgQUkgR2VuZXJhdGVkIEltYWdlY2FsZ2ZzaGEyNTYAAAfcanVtYgAAAChqdW1kYzJjcwARABCAAACqADibcQNjMnBhLnNpZ25hdHVyZQAAAAesY2JvctKEWQOwogEmGCGCWQHnMIIB4zCCAYmgAwIBAgIJALfeWmNDUW56MAoGCCqGSM49BAMCMEAxHzAdBgNVBAMMFlJlY3JhZnQgU3RhZ2luZyBEZXYgQ0ExEDAOBgNVBAoMB1JlY3JhZnQxCzAJBgNVBAYTAlVTMB4XDTI2MDYxMjE5NDM1MFoXDTI3MDYxMjE5NDM1MFowNzELMAkGA1UEBhMCVVMxEzARBgNVBAoTClJlY3JhZnQgQUkxEzARBgNVBAMTCnJlY3JhZnQuYWkwWTATBgcqhkjOPQIBBggqhkjOPQMBBwNCAARKaTVbACsg/DeG3LeOxYdID/VA6EFG73E6Oknb+KIiCFJygRUz4ueN2z/t2qYb6CIUvS8RvgOiiClfoqsYtw81o3UwczAMBgNVHRMBAf8EAjAAMA4GA1UdDwEB/wQEAwIGwDATBgNVHSUEDDAKBggrBgEFBQcDBDAdBgNVHQ4EFgQULzHpBen96SL1y4IPHa8MkMshXf0wHwYDVR0jBBgwFoAUAgsqOBrKqpdK//m/kxZo7ZR4ebcwCgYIKoZIzj0EAwIDSAAwRQIgU8hKW0aXvvk8SQgVFNkax69Ym9ae8GsT2RZTQw+B51ACIQC0D4BkEoRD4N0r2ZRkNy0HZaW3WICy/QZGN95ilF4yzFkBvTCCAbkwggFfoAMCAQICCQCc+Wg7T6ATbzAKBggqhkjOPQQDAjBAMR8wHQYDVQQDDBZSZWNyYWZ0IFN0YWdpbmcgRGV2IENBMRAwDgYDVQQKDAdSZWNyYWZ0MQswCQYDVQQGEwJVUzAeFw0yNjA2MTIxOTQwMTZaFw0yODA2MTExOTQwMTZaMEAxHzAdBgNVBAMMFlJlY3JhZnQgU3RhZ2luZyBEZXYgQ0ExEDAOBgNVBAoMB1JlY3JhZnQxCzAJBgNVBAYTAlVTMFkwEwYHKoZIzj0CAQYIKoZIzj0DAQcDQgAEQ9IQBlcVbKaKPYrQSfOhL/00s7xUDC7RinIuLO/I1k99y9yh6oWF9kPxaP+tx1v1PeOL3yrVquJ730H0ZGiDyqNCMEAwDwYDVR0TAQH/BAUwAwEB/zAOBgNVHQ8BAf8EBAMCAYYwHQYDVR0OBBYEFAILKjgayqqXSv/5v5MWaO2UeHm3MAoGCCqGSM49BAMCA0gAMEUCIFQwNImLlYDeQhjgF+ZiqTbgcuzSqmOJw3Q2lQ/hu83FAiEA9O8cLm/xfoVLqB4jtdbuHzi3WL+p2RN+DRGkwpYswVuhY3BhZFkDpAAAAAAAAAAAAAAAAAAAAAAAAAAAAAAAAAAAAAAAAAAAAAAAAAAAAAAAAAAAAAAAAAAAAAAAAAAAAAAAAAAAAAAAAAAAAAAAAAAAAAAAAAAAAAAAAAAAAAAAAAAAAAAAAAAAAAAAAAAAAAAAAAAAAAAAAAAAAAAAAAAAAAAAAAAAAAAAAAAAAAAAAAAAAAAAAAAAAAAAAAAAAAAAAAAAAAAAAAAAAAAAAAAAAAAAAAAAAAAAAAAAAAAAAAAAAAAAAAAAAAAAAAAAAAAAAAAAAAAAAAAAAAAAAAAAAAAAAAAAAAAAAAAAAAAAAAAAAAAAAAAAAAAAAAAAAAAAAAAAAAAAAAAAAAAAAAAAAAAAAAAAAAAAAAAAAAAAAAAAAAAAAAAAAAAAAAAAAAAAAAAAAAAAAAAAAAAAAAAAAAAAAAAAAAAAAAAAAAAAAAAAAAAAAAAAAAAAAAAAAAAAAAAAAAAAAAAAAAAAAAAAAAAAAAAAAAAAAAAAAAAAAAAAAAAAAAAAAAAAAAAAAAAAAAAAAAAAAAAAAAAAAAAAAAAAAAAAAAAAAAAAAAAAAAAAAAAAAAAAAAAAAAAAAAAAAAAAAAAAAAAAAAAAAAAAAAAAAAAAAAAAAAAAAAAAAAAAAAAAAAAAAAAAAAAAAAAAAAAAAAAAAAAAAAAAAAAAAAAAAAAAAAAAAAAAAAAAAAAAAAAAAAAAAAAAAAAAAAAAAAAAAAAAAAAAAAAAAAAAAAAAAAAAAAAAAAAAAAAAAAAAAAAAAAAAAAAAAAAAAAAAAAAAAAAAAAAAAAAAAAAAAAAAAAAAAAAAAAAAAAAAAAAAAAAAAAAAAAAAAAAAAAAAAAAAAAAAAAAAAAAAAAAAAAAAAAAAAAAAAAAAAAAAAAAAAAAAAAAAAAAAAAAAAAAAAAAAAAAAAAAAAAAAAAAAAAAAAAAAAAAAAAAAAAAAAAAAAAAAAAAAAAAAAAAAAAAAAAAAAAAAAAAAAAAAAAAAAAAAAAAAAAAAAAAAAAAAAAAAAAAAAAAAAAAAAAAAAAAAAAAAAAAAAAAAAAAAAAAAAAAAAAAAAAAAAAAAAAAAAAAAAAAAAAAAAAAAAAAAAAAAAAAAAAAAAAAAAAAAAAAAAAAAAAAAAAAAAAAAAAAAAAAAAAAAAAAAAAAAAAAAAAAAAAAAAAAAAAAAAAAAAAAAAAAAAAAAAAAAAAAAAAAAAAAAAAAAAAAAAAAAAAAAAAAAAAAAAAAAAAAA9lhA9BgTbN/i+VyqboAtpnzc3ckDc6ej5WnyonKKGTHi4g6x5gTFyH+3fknNF+0qNWNJtZb6Q1W/R6i8RYYBKVB9Bg==</c2pa:manifest></metadata>
<path transform="translate(0,0)" fill="rgb(255,255,255)" d="M 0 0 L 2560 0 L 2560 864.995 L 2560 885.169 L 2560 952.428 L 2560 961.747 L 2560 1017.91 L 2560 1025.74 L 2560 1064.34 L 2560 1071.25 L 2560 1080.05 L 2560 1084.8 L 2560 1086.41 L 2560 1097.23 L 2560 2560 L 0 2560 L 0 0 z"/>
<path transform="translate(0,0)" fill="rgb(7,7,7)" d="M 37.5368 940.488 C 78.6402 934.088 123.923 929.215 165.393 923.935 L 382.582 896.43 C 578.596 871.653 774.789 848.314 971.146 826.416 L 1312.33 788.811 L 1407.23 778.584 C 1424.39 776.715 1444.31 774.002 1461.45 773.755 C 1466.55 773.682 1489.39 784.302 1495.02 786.687 C 1495.13 800.725 1494.94 814.764 1494.45 828.795 L 1307.71 853.884 C 1306.86 855.622 1305.99 857.355 1305.12 859.083 C 1328.25 868.306 1355.16 881.832 1378.25 892.585 L 1506.5 951.724 L 1726.13 923.167 C 1760.73 918.64 1796.99 913.269 1831.61 909.6 C 1840.56 913.968 1852.47 920.225 1861.46 923.88 C 1860.75 939.103 1860.42 954.341 1860.47 969.58 C 1814.52 975.221 1768.44 982.508 1722.5 988.655 L 1722.44 1050.17 C 1846.31 1086.76 2010.03 1116.25 2139.9 1115.57 C 2148.77 1115.52 2179.97 1114.21 2187.32 1111.98 C 2243.63 1094.89 2304.18 1061.57 2356.09 1034.58 C 2419.73 1001.49 2474.74 961.096 2523.38 908.726 C 2537.18 893.87 2547.53 879.041 2560 864.995 L 2560 885.169 L 2560 952.428 L 2560 961.747 L 2560 1017.91 L 2560 1025.74 L 2560 1064.34 L 2560 1071.25 L 2560 1080.05 L 2560 1084.8 L 2560 1086.41 L 2560 1097.23 C 2518.7 1112.53 2476.91 1126.48 2434.71 1139.07 C 2335.54 1167.71 2227.43 1189.19 2126.54 1212.65 C 2088.73 1221.44 2051.16 1231.29 2013.26 1239.57 C 1917.29 1260.99 1820.32 1277.69 1722.71 1289.62 L 1722.63 1424.27 C 1737.36 1432.61 1757.77 1442.01 1773.2 1449.59 L 1863.62 1494.14 L 1863.38 1540.29 C 1840.89 1545.33 1808.8 1549.96 1785.25 1554.14 C 1723.09 1518.47 1654.58 1483.12 1591.25 1448.46 C 1552.39 1456.15 1510.36 1462.43 1471 1469.2 L 1235.48 1509.74 L 561.19 1625.79 C 592.669 1647.83 625.634 1668.23 657.221 1690.18 C 670.003 1699.05 683.101 1707.98 696.246 1716.28 C 696.335 1731.41 695.874 1747.34 695.669 1762.54 C 665.668 1768.64 628.444 1772.7 597.189 1777.92 C 549.634 1744.28 497.214 1702.58 450.554 1666.99 L 236.518 1505.11 L 236.975 1465.85 C 266.765 1461.17 296.508 1456.19 326.198 1450.92 C 337.107 1456.87 353.006 1468.4 363.15 1475.74 C 362.951 1373.5 362.144 1270.05 363.21 1167.87 C 341.898 1170.41 307.413 1177.16 287.346 1174.82 C 281.451 1174.13 253.157 1164.53 246.007 1162.2 C 245.637 1144.47 246.266 1124.99 246.502 1107.14 C 308.196 1099.33 369.96 1092.09 431.787 1085.42 C 425.139 1081.35 417.54 1077.4 410.628 1073.69 C 352.958 1042.71 295.817 1010.31 237.856 979.91 C 217.135 984.025 184.356 985.945 161.657 989.44 C 137.045 993.229 104.687 997.399 79.9351 999.078 C 74.2342 999.465 44.3764 989.917 37.0928 987.712 C 36.946 972.197 37.3459 956.053 37.5368 940.488 z"/>
<path transform="translate(0,0)" fill="rgb(255,255,255)" d="M 2225.25 1109.35 C 2235.64 1105.09 2246.34 1100.75 2256.54 1095.9 C 2355.56 1048.91 2456.35 999.525 2531.51 917.441 C 2541.31 906.742 2550.3 895.773 2560 885.169 L 2560 952.428 C 2516.39 994.679 2471.58 1027.25 2417.04 1054.96 C 2387.23 1070.1 2347.69 1092.07 2316.61 1104.37 C 2307.57 1107.95 2254.99 1111.81 2244.39 1111.33 C 2237.03 1110.69 2230.39 1112.09 2225.25 1109.35 z"/>
<path transform="translate(0,0)" fill="rgb(255,255,255)" d="M 2342.24 1099.16 C 2428.86 1053.83 2486.71 1029.36 2560 961.747 L 2560 1017.91 C 2530.21 1041.86 2469.57 1079.21 2434.42 1093.41 C 2427.68 1096.14 2359.25 1101.9 2347.11 1103.08 C 2344.54 1101.63 2344.46 1101.37 2342.24 1099.16 z"/>
<path transform="translate(0,0)" fill="rgb(255,255,255)" d="M 2462.21 1086.69 C 2487 1071.94 2512.75 1059.68 2536.27 1042.55 C 2543.8 1037.06 2552.25 1030.76 2560 1025.74 L 2560 1064.34 C 2548.57 1070.83 2536.53 1076.21 2524.98 1082.48 C 2519.44 1085.48 2501.94 1086.88 2494.96 1087.5 C 2485.42 1088.43 2475.9 1089.5 2466.39 1090.71 L 2462.21 1086.69 z"/>
<path transform="translate(0,0)" fill="rgb(255,255,255)" d="M 2496.05 1092.78 C 2511.33 1091.51 2529.09 1089 2544.49 1086.9 C 2547.3 1087.75 2548.32 1088.12 2550.99 1089.37 C 2520.19 1103 2489.25 1109.82 2459.16 1121.65 L 2456.61 1119.08 L 2458.09 1118.13 C 2472.08 1109.1 2482.5 1103.37 2496.05 1092.78 z"/>
<path transform="translate(0,0)" fill="rgb(255,255,255)" d="M 2560 1071.25 L 2560 1080.05 C 2557.56 1080.17 2555.25 1080.42 2552.82 1080.66 L 2549.5 1076.66 C 2553.37 1074.46 2555.92 1073.08 2560 1071.25 z"/>
<path transform="translate(0,0)" fill="rgb(219,220,219)" d="M 2244.39 1111.33 C 2236.4 1112.7 2227.96 1112.79 2219.88 1113.04 C 2219.05 1113.07 2218.95 1112.47 2219.2 1111.87 L 2219.29 1111.99 C 2221.33 1110.15 2222.36 1110.14 2225.25 1109.35 C 2230.39 1112.09 2237.03 1110.69 2244.39 1111.33 z"/>
<path transform="translate(0,0)" fill="rgb(219,220,219)" d="M 2329.54 1104.73 C 2333.24 1102.95 2338.42 1099.96 2342.24 1099.16 C 2344.46 1101.37 2344.54 1101.63 2347.11 1103.08 C 2343.65 1103.83 2333.75 1104.31 2329.54 1104.73 z"/>
<path transform="translate(0,0)" fill="rgb(219,220,219)" d="M 2536.29 1082.94 C 2539.39 1081.38 2546.59 1077.09 2549.5 1076.66 L 2552.82 1080.66 C 2548.82 1081.57 2540.75 1082.35 2536.29 1082.94 z"/>
<path transform="translate(0,0)" fill="rgb(219,220,219)" d="M 2451.64 1092.14 C 2454.95 1090.4 2458.93 1087.64 2462.21 1086.69 L 2466.39 1090.71 C 2461.83 1091.58 2456.42 1091.67 2451.64 1092.14 z"/>
<path transform="translate(0,0)" fill="rgb(219,220,219)" d="M 2560 1084.8 L 2560 1086.41 C 2556.99 1087.39 2554.03 1088.5 2550.99 1089.37 C 2548.32 1088.12 2547.3 1087.75 2544.49 1086.9 C 2549.02 1085.97 2555.36 1085.19 2560 1084.8 z"/>
<path transform="translate(0,0)" fill="rgb(169,169,168)" d="M 2442.88 1126.59 C 2447.1 1124.02 2452.04 1120.7 2456.61 1119.08 L 2459.16 1121.65 C 2453.53 1123.66 2448.6 1125.03 2442.88 1126.59 z"/>
<path transform="translate(0,0)" fill="rgb(219,220,219)" d="M 1305.12 859.083 C 1297.45 854.837 1301.16 854.693 1307.71 853.884 C 1306.86 855.622 1305.99 857.355 1305.12 859.083 z"/>
<path transform="translate(0,0)" fill="rgb(255,255,255)" d="M 1483.08 1356.69 C 1487.1 1356.69 1586.17 1402.74 1598.63 1408.31 C 1560.08 1415.35 1518.92 1421.34 1480.03 1427.69 L 1243.81 1466.42 L 647.202 1565.03 C 615.043 1571.11 579.87 1576.19 547.427 1581.47 C 547.273 1557.6 546.192 1532.43 545.604 1508.45 C 646.46 1494.15 751.943 1475.58 852.601 1458.91 L 1278.96 1389.32 C 1345.99 1378.47 1416.03 1366.06 1483.08 1356.69 z"/>
<path transform="translate(0,0)" fill="rgb(255,255,255)" d="M 1606.42 1413.06 C 1612.54 1415.41 1632.29 1428.87 1638.73 1433.21 C 1526.18 1450.54 1411.23 1471.87 1298.85 1491.23 L 572.803 1615.81 L 548.284 1619.94 C 547.697 1609.61 547.766 1597.47 547.559 1587 L 1270.25 1467.78 C 1380.62 1449.58 1495.95 1429.01 1606.42 1413.06 z"/>
<path transform="translate(0,0)" fill="rgb(255,255,255)" d="M 1462.08 1326.71 L 1466.3 1326.25 C 1472.8 1329.13 1477.7 1342.48 1482.13 1350.36 C 1361.83 1372.13 1234.98 1390.83 1113.76 1410.62 L 561.176 1500.32 L 545.744 1502.97 L 544.657 1463.3 C 572.932 1460.02 605.676 1454.24 634.137 1449.96 L 788.544 1427.12 C 1012.39 1393.84 1238.13 1356.88 1462.08 1326.71 z"/>
<path transform="translate(0,0)" fill="rgb(255,255,255)" d="M 515.803 1146.74 C 519.264 1146.29 526.229 1146.27 529.979 1146.13 C 529.725 1306.16 531.856 1466.18 536.372 1626.14 C 521.879 1628.26 507.356 1630.16 492.806 1631.85 L 474.428 1633.73 C 473.248 1582.72 474.878 1527.66 474.922 1476.18 L 474.577 1152.13 C 488.261 1149.91 502.009 1148.11 515.803 1146.74 z"/>
<path transform="translate(0,0)" fill="rgb(255,255,255)" d="M 1368.82 1137.98 C 1392.63 1132.78 1427.88 1122.02 1450.89 1119.67 C 1457.09 1119.04 1499.49 1129.47 1509.33 1131.71 C 1544.25 1139.71 1579.23 1147.43 1614.28 1154.89 C 1721.47 1177.77 1815.47 1194.9 1924.34 1204.77 L 1922.63 1209.62 C 1912.37 1211.86 1884.41 1227.14 1875.8 1227.39 C 1846.93 1228.42 1817.36 1224.68 1788.46 1222.6 C 1748.51 1219.72 1708.52 1216.25 1668.62 1212.84 C 1661.89 1212.26 1652.75 1211.53 1646.26 1210.23 C 1552.39 1191.31 1460.71 1164.48 1368.82 1137.98 z"/>
<path transform="translate(0,0)" fill="rgb(255,255,255)" d="M 439.429 1150.29 C 447.536 1150.67 458 1151.97 466.256 1152.77 L 466.067 1628.18 L 455.497 1620.3 L 437.414 1606.95 C 434.577 1462.49 425.983 1317.55 419.63 1173.21 C 418.844 1155.34 424.225 1154.2 439.429 1150.29 z"/>
<path transform="translate(0,0)" fill="rgb(255,255,255)" d="M 658.431 1133.64 L 723.218 1124.69 C 775.464 1117.54 771.94 1119.54 822 1135.31 L 905.635 1161.72 C 943.859 1173.78 992.209 1187.17 1029 1199.97 C 994.855 1206.43 956.833 1217.85 922.405 1222.56 C 914.302 1223.67 884.19 1212.55 874.054 1209.31 C 823.503 1192.88 773.079 1176.06 722.786 1158.86 C 713.695 1155.79 666.16 1139.22 659.386 1138.33 C 658.083 1137.7 654.964 1136.59 654.129 1135.28 C 653.063 1133.6 658.431 1133.64 658.431 1133.64 z"/>
<path transform="translate(0,0)" fill="rgb(219,220,219)" d="M 659.386 1138.33 C 658.083 1137.7 654.964 1136.59 654.129 1135.28 C 653.063 1133.6 658.431 1133.64 658.431 1133.64 C 658.802 1135.22 659.079 1136.74 659.386 1138.33 z"/>
<path transform="translate(0,0)" fill="rgb(255,255,255)" d="M 61.1338 945.012 C 113.109 939.195 166.953 931.593 218.913 924.891 L 454.034 895.174 C 672.6 868.079 891.351 842.492 1110.27 818.415 L 1356.26 791.542 L 1426.17 784.034 C 1439.38 782.621 1458.2 778.429 1470.04 783.676 C 1478.55 787.578 1473.86 787.57 1467.09 788.621 C 1437.11 790.123 1390.71 796.746 1360.12 800.117 L 1142.97 824.404 L 406.976 912.314 L 189.739 939.531 C 155.445 943.826 120.039 949.186 85.6361 952.263 C 79.7883 952.786 67.3566 947.352 61.1338 945.012 z"/>
<path transform="translate(0,0)" fill="rgb(219,220,219)" d="M 1470.04 783.676 C 1478.55 787.578 1473.86 787.57 1467.09 788.621 L 1470.04 783.676 z"/>
<path transform="translate(0,0)" fill="rgb(255,255,255)" d="M 635.005 1136.73 C 644.415 1135.71 875.119 1217 911.084 1226.7 C 887.066 1232.3 861.462 1239.51 837.47 1245.79 C 834.314 1246.77 831.137 1247.75 827.938 1248.58 C 811.132 1252.96 694.646 1208.88 670.547 1199.07 C 652.492 1191.61 634.656 1183.64 617.06 1175.15 C 598.719 1166.2 583.902 1155.39 566.315 1145.39 C 588.17 1142.06 612.862 1139.51 635.005 1136.73 z"/>
<path transform="translate(0,0)" fill="rgb(255,255,255)" d="M 1154.76 1295.86 C 1243.04 1289.49 1331.42 1268.95 1420.24 1264.13 C 1432.69 1263.46 1449.22 1265.95 1461.87 1267.16 C 1481.01 1269.07 1500.19 1270.53 1519.4 1271.55 C 1578.44 1274.8 1636.56 1274.42 1695.59 1273.62 C 1706.34 1271.85 1719.46 1272.37 1731.62 1270.81 C 1732.47 1271.22 1733.31 1271.63 1734.15 1272.04 C 1729.47 1274.06 1723.93 1275.33 1718.89 1275.96 C 1664.18 1290.23 1608.43 1294.5 1552.1 1298.38 C 1460.88 1304.63 1369.41 1306.48 1278.01 1303.92 C 1252.5 1303.3 1227.01 1302.26 1201.55 1300.82 C 1190.97 1300.28 1171.04 1298.64 1161.36 1298.96 L 1154.76 1295.86 z"/>
<path transform="translate(0,0)" fill="rgb(219,220,219)" d="M 1731.62 1270.81 C 1732.47 1271.22 1733.31 1271.63 1734.15 1272.04 C 1729.47 1274.06 1723.93 1275.33 1718.89 1275.96 C 1713.29 1272.23 1704.86 1274.48 1695.59 1273.62 C 1706.34 1271.85 1719.46 1272.37 1731.62 1270.81 z"/>
<path transform="translate(0,0)" fill="rgb(255,255,255)" d="M 1641.32 1216.54 C 1646.63 1215.39 1700.23 1220.76 1709.8 1221.45 C 1760.27 1225.06 1811.98 1230.66 1862.51 1233.03 C 1839.96 1242.2 1790.18 1258.83 1766.85 1262.7 C 1743.47 1266.59 1700.33 1268.01 1676.56 1268.74 C 1629.41 1269.71 1582.24 1269.13 1535.13 1267 C 1508.98 1265.83 1478.62 1264.61 1452.96 1260.78 C 1510.41 1243.93 1582.57 1229.43 1641.32 1216.54 z"/>
<path transform="translate(0,0)" fill="rgb(255,255,255)" d="M 1015.59 1208.39 C 1049.08 1201.35 1092.41 1191.31 1126.32 1187.91 C 1130.74 1187.46 1163.34 1197.65 1170.41 1199.72 C 1199.82 1208.43 1229.29 1216.92 1258.82 1225.19 C 1304.16 1237.92 1350 1248.74 1396.24 1257.63 L 1395.14 1261.4 C 1373.5 1263.45 1351.88 1265.77 1330.3 1268.36 C 1321.32 1269.37 1301.17 1272.13 1293.18 1271.69 C 1270.62 1270.47 1242.68 1264.1 1220.52 1259.63 C 1151.57 1245.74 1083.55 1226.62 1015.59 1208.39 z"/>
<path transform="translate(0,0)" fill="rgb(255,255,255)" d="M 556.572 1150.51 C 565.872 1155.97 577.142 1163.77 586.368 1169.76 C 593.454 1226.3 595.355 1287.97 601.577 1345.61 C 604.373 1371.52 607.686 1414.58 610.533 1441.95 C 610.055 1442.74 609.576 1443.53 609.098 1444.32 L 603.459 1445.32 C 587.608 1447.6 571.779 1450.03 555.975 1452.61 L 556.407 1265.73 C 556.387 1228.19 555.431 1187.71 556.572 1150.51 z"/>
<path transform="translate(0,0)" fill="rgb(255,255,255)" d="M 1115.82 1072.96 C 1124.71 1071.56 1182.84 1091.74 1195.23 1095.67 L 1337.46 1139.98 C 1308.79 1147.02 1274.39 1156.81 1245.02 1161.74 C 1243.26 1162.04 1236.75 1160.33 1234.66 1159.75 C 1158.73 1137.88 1080.47 1112.01 1005.17 1087.68 C 1039.35 1081.87 1080.83 1077.53 1115.82 1072.96 z"/>
<path transform="translate(0,0)" fill="rgb(255,255,255)" d="M 891.009 1102.98 C 894.378 1102.54 896.376 1102.43 899.678 1103.55 C 972.667 1128.27 1044.49 1158.04 1117.46 1182.63 C 1098.63 1185.75 1079.37 1190.05 1060.6 1193.73 C 1040.24 1197.73 1035.1 1196.61 1015.62 1190.25 C 937.152 1166.33 858.838 1141.9 780.687 1116.95 C 815.445 1111.76 855.83 1107.36 891.009 1102.98 z"/>
<path transform="translate(0,0)" fill="rgb(255,255,255)" d="M 917.853 1099.34 C 929.477 1097.72 986.79 1088.09 995.102 1090.3 C 1015.94 1095.84 1050.09 1107.75 1071.45 1114.65 C 1125.25 1132.13 1179.26 1148.95 1233.47 1165.11 C 1204.72 1172.62 1175.88 1179.8 1146.97 1186.65 C 1089.73 1169.22 1031.24 1144.52 974.402 1124.72 C 955.858 1118.26 934.729 1109.46 916.134 1103.83 C 915.166 1103.45 910.704 1102.28 910.774 1100.83 C 911.71 1099.82 914.165 1099.84 915.535 1099.66 L 917.853 1099.34 z"/>
<path transform="translate(0,0)" fill="rgb(219,220,219)" d="M 917.853 1099.34 L 916.134 1103.83 C 915.166 1103.45 910.704 1102.28 910.774 1100.83 C 911.71 1099.82 914.165 1099.84 915.535 1099.66 L 917.853 1099.34 z"/>
<path transform="translate(0,0)" fill="rgb(255,255,255)" d="M 278.777 1110.26 C 322.407 1106.84 373.692 1099.21 417.76 1093.99 L 679.863 1062.92 L 1500.25 960.288 C 1609.21 946.507 1722.14 929.585 1830.69 917.584 L 1847.17 925.013 L 671.631 1069.38 L 411.949 1101.5 L 337.72 1110.94 C 318.23 1113.43 296.844 1117.82 277.638 1113.8 C 269.711 1112.4 273.209 1111.03 278.777 1110.26 z"/>
<path transform="translate(0,0)" fill="rgb(169,169,168)" d="M 277.638 1113.8 C 269.711 1112.4 273.209 1111.03 278.777 1110.26 C 277.956 1111.97 278.09 1111.82 277.638 1113.8 z"/>
<path transform="translate(0,0)" fill="rgb(255,255,255)" d="M 535.239 1091.85 L 536.64 1093.16 C 537.667 1105.32 537.01 1125.2 536.921 1138.07 C 516.385 1132.22 499.857 1132.69 478.803 1135.83 C 457.274 1139.03 422.367 1140.89 405.799 1156.39 C 371.496 1161.11 337.161 1165.59 302.796 1169.83 C 299.428 1170.33 299.579 1170.39 296.256 1169.77 C 294.013 1165.36 296.062 1129.28 296.325 1121.78 C 324.103 1119.26 356.154 1114.4 384.193 1110.83 L 535.239 1091.85 z"/>
<path transform="translate(0,0)" fill="rgb(255,255,255)" d="M 248.013 1475.52 C 254.517 1478.94 277.151 1496.27 283.943 1501.31 L 355.252 1554.35 L 591.826 1729.96 C 591.981 1741.1 591.91 1750.65 591.392 1761.78 C 586.222 1759.15 568.189 1744.99 562.972 1741.03 L 498.555 1691.78 L 247.537 1501.91 L 248.013 1475.52 z"/>
<path transform="translate(0,0)" fill="rgb(255,255,255)" d="M 1808.49 1145.2 C 1814.15 1144.16 1826.5 1145.67 1832.64 1146.15 C 1905.04 1151.71 1978.07 1158.21 2050.63 1160.5 C 2027.12 1170.65 1994.22 1181.72 1969.15 1191.25 C 1962.75 1193.86 1947.97 1200.45 1942.03 1200.24 C 1874.03 1197.77 1802.6 1185.12 1736.14 1173.81 C 1760.82 1165.34 1783.84 1154.23 1808.49 1145.2 z"/>
<path transform="translate(0,0)" fill="rgb(255,255,255)" d="M 954.095 1257.19 C 989.444 1247.5 1034.18 1236.51 1069.64 1230.22 C 1076.25 1229.05 1149.11 1249.41 1162.27 1252.49 C 1197.09 1260.38 1232.08 1267.53 1267.21 1273.93 C 1268.85 1273.98 1271.53 1273.86 1272.83 1275.01 C 1273.41 1276.83 1265.29 1277.29 1264.07 1277.42 C 1218.02 1281.81 1165.67 1292.8 1118.75 1293.26 C 1103.98 1293.41 1071.53 1284.68 1055.8 1281.03 L 954.095 1257.19 z"/>
<path transform="translate(0,0)" fill="rgb(169,169,168)" d="M 1267.21 1273.93 C 1268.85 1273.98 1271.53 1273.86 1272.83 1275.01 C 1273.41 1276.83 1265.29 1277.29 1264.07 1277.42 C 1266.1 1276.18 1266.78 1276.33 1267.21 1273.93 z"/>
<path transform="translate(0,0)" fill="rgb(255,255,255)" d="M 1850.28 930.595 C 1853.17 933.688 1852.16 958.793 1852.15 964.748 L 1768.51 976.485 C 1734.29 981.334 1726.61 983.543 1693.15 977.316 C 1676.2 974.162 1623.41 987.347 1610.32 1000.02 C 1596.18 1002.13 1582 1004 1567.79 1005.64 C 1563.65 1006.17 1565.28 1006.78 1562.46 1004.75 C 1560.54 996.587 1561.47 975.794 1561.62 966.241 L 1850.28 930.595 z"/>
<path transform="translate(0,0)" fill="rgb(255,255,255)" d="M 606.938 1181.31 C 618.814 1186 636.82 1195.38 649.576 1201.05 C 653.111 1253.96 656.296 1306.89 659.131 1359.84 C 660.451 1383.25 661.925 1407.46 663.414 1430.94 C 663.676 1435.08 663.228 1434.61 660.947 1436.79 C 650.375 1438.33 639.812 1439.93 629.259 1441.59 L 612.861 1252.99 C 611.023 1230.29 607.331 1203.67 606.938 1181.31 z"/>
<path transform="translate(0,0)" fill="rgb(255,255,255)" d="M 1710.65 1057.68 C 1715.16 1057.35 1793.47 1078.71 1804.21 1081.19 C 1837.85 1089.13 1871.76 1095.82 1905.88 1101.27 C 1885.02 1108.92 1853.79 1123.53 1832.7 1124.93 C 1828.35 1125.22 1809.42 1122.09 1804.02 1121.23 C 1733.53 1111.84 1671.2 1099.15 1602.16 1082.92 C 1638.49 1075.23 1674.66 1066.82 1710.65 1057.68 z"/>
<path transform="translate(0,0)" fill="rgb(255,255,255)" d="M 1829.93 1136 C 1856.83 1124.43 1887.28 1114.19 1914.94 1103.42 C 1974.25 1113.9 2034.16 1120.72 2094.32 1123.86 C 2099 1123.7 2150.95 1123.79 2152.05 1124.35 C 2151.93 1125.91 2147.02 1126.91 2146 1127.17 C 2121.7 1135.99 2089.45 1148.75 2064.8 1154.94 C 2056.66 1156.98 2018.3 1154.07 2007.36 1153.45 C 1967.57 1151.15 1927.8 1148.47 1888.06 1145.42 C 1871.09 1144.18 1849.39 1141.82 1832.97 1141.28 C 1828.9 1140.88 1827.97 1140.64 1824.15 1139.67 L 1824.23 1138.56 L 1829.93 1136 z"/>
<path transform="translate(0,0)" fill="rgb(169,169,168)" d="M 2094.32 1123.86 C 2099 1123.7 2150.95 1123.79 2152.05 1124.35 C 2151.93 1125.91 2147.02 1126.91 2146 1127.17 C 2145.24 1123.77 2102.79 1125.59 2094.32 1123.86 z"/>
<path transform="translate(0,0)" fill="rgb(255,255,255)" d="M 1426.27 1162.66 C 1431.78 1161.19 1485.93 1177.01 1495.15 1179.42 C 1540.76 1191.44 1586.58 1202.68 1632.57 1213.13 C 1601.97 1219.5 1571.45 1226.31 1541.04 1233.55 C 1529.47 1234.73 1436.01 1210.71 1419.16 1206.87 C 1391.6 1200.58 1363.9 1194.86 1336.09 1189.74 C 1365.53 1180.39 1396.57 1171.57 1426.27 1162.66 z"/>
<path transform="translate(0,0)" fill="rgb(255,255,255)" d="M 1338.06 1043.04 C 1344.74 1043.24 1390.18 1058.22 1399.28 1060.87 C 1440.71 1073.26 1482.42 1084.68 1524.38 1095.1 L 1467.62 1108.94 C 1457.43 1111.42 1436.21 1118.21 1427.08 1115.56 C 1386.91 1103.76 1346.83 1091.69 1306.83 1079.34 C 1283.91 1072.3 1257.66 1064.83 1235.39 1056.63 C 1268.7 1051.46 1304.5 1047.29 1338.06 1043.04 z"/>
<path transform="translate(0,0)" fill="rgb(255,255,255)" d="M 1351.73 1040.88 C 1389.65 1037.5 1435.48 1028.1 1473.56 1025.52 C 1482.67 1024.91 1522.85 1039.12 1534.84 1042.79 L 1622.49 1069.15 C 1630.96 1070.91 1627.12 1072 1621.87 1073.48 C 1599.28 1073.95 1562.42 1089.43 1537.37 1091.48 C 1519.78 1092.91 1378.73 1049.8 1351.73 1040.88 z"/>
<path transform="translate(0,0)" fill="rgb(219,220,219)" d="M 1622.49 1069.15 C 1630.96 1070.91 1627.12 1072 1621.87 1073.48 C 1622.06 1071.98 1622.22 1070.63 1622.49 1069.15 z"/>
<path transform="translate(0,0)" fill="rgb(255,255,255)" d="M 1321.98 1193.85 C 1335.22 1191.56 1502.43 1230.81 1524.37 1237.44 C 1498.71 1243.36 1473.16 1249.76 1447.73 1256.64 C 1430.98 1261.74 1402.48 1253.68 1384.98 1250.06 C 1338.55 1240.75 1292.54 1229.42 1247.09 1216.1 C 1267.95 1208.67 1300.55 1199.95 1321.98 1193.85 z"/>
<path transform="translate(0,0)" fill="rgb(255,255,255)" d="M 403.228 1163.06 L 404.765 1163.26 C 411.585 1171.55 409.069 1446.26 409.023 1481.34 L 389.055 1484.53 C 385.944 1485.02 387.034 1484.99 383.953 1484.49 C 380.262 1478.74 382.633 1461.82 382.65 1454.42 L 382.399 1390.57 L 381.907 1165.36 L 403.228 1163.06 z"/>
<path transform="translate(0,0)" fill="rgb(255,255,255)" d="M 1220.57 1059.27 C 1225.7 1058.34 1401.15 1113.56 1421 1119.73 C 1404.97 1123.69 1352.62 1139.3 1340.96 1135.14 C 1273.37 1115.68 1201.05 1092.22 1133.73 1070.67 C 1155.64 1066.41 1197.87 1061.48 1220.57 1059.27 z"/>
<path transform="translate(0,0)" fill="rgb(255,255,255)" d="M 1358.93 1140.24 C 1378.16 1145.28 1400.79 1152.81 1420.1 1158.67 L 1237.65 1213.27 L 1222.81 1209.22 L 1156.45 1189.95 L 1358.93 1140.24 z"/>
<path transform="translate(0,0)" fill="rgb(255,255,255)" d="M 547.795 1628.24 C 556.088 1630.5 663.185 1704.32 678.258 1715.33 L 610.025 1722.87 L 596.953 1724.39 C 584.115 1714.01 564.619 1700.86 550.871 1690.9 L 480.795 1639.37 C 494.788 1637.94 538.514 1635.23 547.795 1628.24 z"/>
<path transform="translate(0,0)" fill="rgb(255,255,255)" d="M 1644.19 1100.25 C 1649.28 1098.59 1662.76 1102.06 1668.36 1103.27 C 1722.11 1114.89 1776.33 1122.36 1830.75 1130.26 C 1806.39 1139.01 1780.77 1150.02 1756.7 1159.88 C 1749.57 1160.13 1717.13 1153.13 1708.89 1151.46 C 1662.56 1142.32 1616.44 1132.19 1570.55 1121.07 C 1592.3 1113.5 1621.76 1105.36 1644.19 1100.25 z"/>
<path transform="translate(0,0)" fill="rgb(255,255,255)" d="M 668.512 1209.07 C 681.716 1213.5 695.82 1218.91 708.982 1223.72 L 709.118 1369.11 C 709.129 1377.82 709.942 1423.42 708.571 1429.64 C 700.643 1431.17 690.097 1432.27 681.894 1433.34 C 678.957 1363.74 675.68 1277.67 668.512 1209.07 z"/>
<path transform="translate(0,0)" fill="rgb(255,255,255)" d="M 2204.64 1119.91 C 2211.44 1118.69 2221.17 1117.91 2228.1 1118.23 C 2228.47 1118.24 2228.74 1119.03 2228.23 1119.42 C 2226.46 1120.75 2225.65 1121.3 2223.66 1121.89 C 2205.67 1133.39 2181.32 1146.21 2162.34 1156.33 C 2122.4 1177.81 2081.6 1197.65 2040.04 1215.79 C 2026.42 1221.59 2009.22 1229.34 1995.45 1233.42 C 1967.8 1241.6 1930.59 1245.16 1903.63 1252.89 L 1899.08 1250.77 C 1995.42 1216.47 2082.95 1164.31 2175.83 1122.53 C 2181.81 1119.83 2197.78 1120.06 2204.64 1119.91 z"/>
<path transform="translate(0,0)" fill="rgb(219,220,219)" d="M 2204.64 1119.91 C 2211.44 1118.69 2221.17 1117.91 2228.1 1118.23 C 2228.47 1118.24 2228.74 1119.03 2228.23 1119.42 C 2226.46 1120.75 2225.65 1121.3 2223.66 1121.89 C 2218.71 1118.85 2212.64 1120.71 2204.64 1119.91 z"/>
<path transform="translate(0,0)" fill="rgb(255,255,255)" d="M 779.915 1247.86 C 793.429 1251.56 807.09 1255.6 820.575 1259.48 C 821.183 1291.07 822.047 1322.66 823.168 1354.24 C 823.713 1371.09 824.358 1388.18 824.664 1405.03 C 824.756 1410.14 824.861 1410.5 822.185 1413.01 C 808.094 1414.94 794.031 1417.06 780.001 1419.38 L 779.915 1247.86 z"/>
<path transform="translate(0,0)" fill="rgb(255,255,255)" d="M 1708.47 1291.77 L 1712.37 1291.65 C 1714.92 1295.64 1713.85 1411.7 1713.84 1426.28 C 1699.98 1429.3 1684.36 1433.68 1670.46 1437.28 L 1667.53 1437.51 C 1664 1431.34 1666.31 1313.22 1666.55 1296.55 L 1708.47 1291.77 z"/>
<path transform="translate(0,0)" fill="rgb(255,255,255)" d="M 727.826 1231.15 C 738.873 1234.9 749.983 1238.45 761.151 1241.81 C 761.319 1298.21 762.952 1364.83 760.905 1420.55 L 758.58 1422.09 L 727.666 1426.93 L 727.826 1231.15 z"/>
<path transform="translate(0,0)" fill="rgb(255,255,255)" d="M 1477.1 792.975 C 1478.93 792.678 1483.71 791.997 1484.54 793.597 C 1488.07 800.354 1486.23 815.821 1486.1 823.228 C 1430.57 828.696 1364.99 838.961 1308.88 846.311 C 1305.56 846.814 1305.34 847.14 1302.18 846.242 C 1298.12 839.814 1300.38 820.954 1300.55 812.607 C 1356.82 804.843 1420.19 799.213 1477.1 792.975 z"/>
<path transform="translate(0,0)" fill="rgb(255,255,255)" d="M 257.332 936.704 C 260.283 936.169 259.888 936.333 262.959 936.489 C 266.881 940.956 264.776 962.473 264.582 969.566 C 207.644 977.639 149.081 984.346 91.7955 992.043 C 87.2317 992.496 89.0751 993.134 85.8536 990.905 C 83.6014 983.097 84.9613 967.457 85.3237 958.866 C 141.971 950.61 200.325 944.316 257.332 936.704 z"/>
<path transform="translate(0,0)" fill="rgb(255,255,255)" d="M 2048.71 1218.03 C 2092.79 1198.53 2136.06 1177.28 2178.43 1154.3 C 2196.77 1144.49 2227.03 1125.42 2243.95 1118.39 C 2250.86 1115.52 2295.68 1113.01 2306.44 1112.26 C 2265.72 1143.05 2191.72 1182.21 2142.91 1199.1 C 2122.22 1206.25 2077.8 1213.49 2053.37 1220.79 L 2048.71 1218.03 z"/>
<path transform="translate(0,0)" fill="rgb(255,255,255)" d="M 687.047 926.676 C 697.181 924.898 703.001 930.676 712.117 935.489 C 724.238 941.893 736.45 948.122 748.75 954.174 C 800.045 979.436 851.526 1004.32 903.189 1028.82 L 865.308 1033.11 C 859.579 1033.61 762.002 986.358 745.754 978.862 C 724.832 969.296 703.984 959.569 683.212 949.683 C 672.783 944.699 657.552 937.906 648.22 931.85 C 660.654 929.892 674.475 928.33 687.047 926.676 z"/>
<path transform="translate(0,0)" fill="rgb(255,255,255)" d="M 1713.58 1432.7 C 1721.14 1430.4 1753.05 1448.37 1761.69 1452.69 L 1846.55 1494.89 C 1831.63 1498.05 1816.74 1501.35 1801.88 1504.77 L 1785.66 1508.31 C 1750 1490.68 1704.66 1463.66 1668.96 1443.67 C 1683.9 1440.26 1698.77 1436.6 1713.58 1432.7 z"/>
<path transform="translate(0,0)" fill="rgb(255,255,255)" d="M 1650.87 1298.01 C 1653.87 1297.43 1653.68 1297.44 1656.69 1298.02 C 1658.39 1301.36 1658.02 1426.98 1658.09 1438.08 C 1652.8 1433.42 1645.33 1428.85 1639.34 1424.88 C 1631.73 1420.38 1624.24 1415.68 1616.88 1410.78 L 1617.36 1301.61 L 1650.87 1298.01 z"/>
<path transform="translate(0,0)" fill="rgb(255,255,255)" d="M 1002.13 1211.57 C 1009.37 1210.23 1050.74 1223.32 1060.02 1226.21 C 1005.57 1238.13 951.552 1251.94 898.061 1267.6 C 876.482 1262.95 855.605 1258.38 834.323 1252.5 C 889.806 1237.06 945.771 1223.41 1002.13 1211.57 z"/>
<path transform="translate(0,0)" fill="rgb(255,255,255)" d="M 440.757 956.703 C 441.377 956.655 447.536 956.178 447.536 956.178 C 463.561 965.354 479.849 974.141 496.107 982.879 C 545.228 1009.17 594.562 1035.07 644.103 1060.57 L 609.034 1064.93 C 602.502 1064.61 426.326 972.196 403.925 960.754 L 440.757 956.703 z"/>
<path transform="translate(0,0)" fill="rgb(255,255,255)" d="M 1561.69 1012.96 C 1575.54 1010.73 1619.54 1027.97 1635.45 1033.34 C 1657.56 1040.58 1679.78 1047.47 1702.11 1054.01 C 1691.77 1057.22 1644.47 1069.94 1635.67 1067.35 C 1588.43 1054.71 1534.9 1037.52 1488.03 1022.84 C 1512.56 1019.33 1537.11 1016.04 1561.69 1012.96 z"/>
<path transform="translate(0,0)" fill="rgb(255,255,255)" d="M 502.61 949.283 C 504.537 948.994 506.986 948.612 508.786 949.504 C 529.959 959.987 552.457 972.028 573.28 982.939 L 708.195 1052.91 L 675.307 1056.71 C 665.47 1058.44 625.385 1034.96 613.158 1028.57 L 469.582 953.153 C 480.293 951.572 491.796 950.491 502.61 949.283 z"/>
<path transform="translate(0,0)" fill="rgb(255,255,255)" d="M 2093.76 1151.83 L 2094.72 1155.2 C 2016.72 1192.18 1936.43 1237.41 1852.26 1261.2 C 1823.99 1269.19 1782.02 1271.79 1752.16 1276.98 C 1750.24 1276.06 1749.41 1276.32 1749.25 1274.08 C 1763.5 1270.17 1777.73 1266.16 1791.98 1262.25 C 1851.96 1245.8 1908.76 1220.78 1966.56 1198.25 C 2008.72 1182.14 2051.13 1166.66 2093.76 1151.83 z"/>
<path transform="translate(0,0)" fill="rgb(255,255,255)" d="M 371.206 964.216 C 374.336 963.719 378.063 963.046 380.955 964.417 C 405.221 975.916 429.842 989.488 453.542 1002.08 C 495.624 1024.4 537.905 1046.34 580.381 1067.91 C 570.382 1069.63 558.503 1070.85 548.309 1072.16 C 524.292 1061.38 495.778 1046.38 471.763 1034.54 L 336.411 968.262 L 371.206 964.216 z"/>
<path transform="translate(0,0)" fill="rgb(255,255,255)" d="M 589.963 939.088 C 599.299 937.789 622.71 933.989 630.834 934.469 C 630.506 937.898 630.403 936.739 631.264 939.938 C 644.623 948.246 684.884 965.829 700.729 973.243 C 744.383 993.897 788.18 1014.25 832.116 1034.29 C 830.644 1035.64 829.196 1037.01 827.772 1038.4 C 821.264 1038.27 799.381 1041.44 791.838 1042.36 C 725.307 1006.95 656.893 973.816 589.963 939.088 z"/>
<path transform="translate(0,0)" fill="rgb(255,255,255)" d="M 752.949 918.606 C 775.605 930.628 804.538 943.504 828.094 954.715 L 961.565 1017.88 C 968.84 1021.31 964.384 1021.37 959.203 1022.33 C 950.237 1022.65 936.03 1024.53 926.805 1025.47 L 716.999 923.143 C 728.418 921.243 741.352 919.987 752.949 918.606 z"/>
<path transform="translate(0,0)" fill="rgb(219,220,219)" d="M 961.565 1017.88 C 968.84 1021.31 964.384 1021.37 959.203 1022.33 L 961.565 1017.88 z"/>
<path transform="translate(0,0)" fill="rgb(255,255,255)" d="M 1273.63 857.984 C 1276.88 857.516 1275.75 857.564 1279.04 858.123 C 1284.89 867.318 1343.57 892.32 1357.71 898.877 C 1398.64 918.005 1439.69 936.892 1480.85 955.535 C 1467.95 956.966 1455.08 958.625 1442.25 960.51 C 1432.32 958.767 1252.2 872.563 1234.71 863.145 C 1246.42 860.898 1261.57 859.46 1273.63 857.984 z"/>
<path transform="translate(0,0)" fill="rgb(255,255,255)" d="M 940.718 896.189 C 949.656 895.163 972.106 891.889 979.61 893.169 C 979.659 895.638 979.111 896.987 980.968 897.802 C 1035.22 921.616 1128.79 970.045 1179.46 990.351 C 1178.82 991.814 1178.26 993.261 1177.67 994.743 C 1171.93 994.382 1151.5 997.268 1145.2 998.08 L 1009.95 933.207 C 994.781 925.935 954.301 907.816 941.686 899.756 C 941.377 898.564 941.055 897.375 940.718 896.189 z"/>
<path transform="translate(0,0)" fill="rgb(255,255,255)" d="M 1638.77 1440.38 C 1641.07 1440.02 1645.3 1439.29 1647.34 1440.21 C 1660.18 1445.97 1675.5 1455.01 1687.63 1461.79 L 1780.73 1513.7 C 1780.73 1522.91 1780.93 1532.24 1781.04 1541.46 C 1774.04 1538.15 1766.24 1533.86 1759.29 1530.25 C 1747.76 1522.89 1723.48 1510.78 1710.54 1503.73 L 1604.42 1445.98 L 1638.77 1440.38 z"/>
<path transform="translate(0,0)" fill="rgb(255,255,255)" d="M 556.391 942.986 L 566.796 942.19 C 628.062 975.92 705.644 1014.76 768.376 1045.69 L 742.803 1048.4 L 731.119 1049.62 C 664.688 1014.42 597.963 979.772 530.95 945.689 L 556.391 942.986 z"/>
<path transform="translate(0,0)" fill="rgb(255,255,255)" d="M 2391.63 1104.49 C 2396.11 1103.9 2397.29 1102.85 2400.27 1104.67 C 2397.97 1107.13 2398.15 1107.01 2395.1 1108.46 C 2355.49 1132.31 2308.16 1156.37 2264.31 1171.25 C 2244.49 1177.98 2215.71 1181.86 2194.92 1188.02 L 2190.28 1185.68 C 2235.3 1165.17 2278.17 1140.26 2318.28 1111.31 C 2342.68 1109.06 2367.22 1106.22 2391.63 1104.49 z"/>
<path transform="translate(0,0)" fill="rgb(255,255,255)" d="M 1129.8 874.839 C 1137.39 873.527 1154.43 870.959 1161.69 871.616 C 1166.39 876.668 1161.15 876.822 1164.07 878.363 C 1209.03 902.121 1322 951.654 1358.95 971.475 L 1318.2 976.533 L 1188.52 909.48 C 1178.45 904.254 1139.2 882.917 1129.88 879.531 C 1125.1 876.624 1122.85 876.295 1128 874.918 L 1129.8 874.839 z"/>
<path transform="translate(0,0)" fill="rgb(219,220,219)" d="M 1129.88 879.531 C 1125.1 876.624 1122.85 876.295 1128 874.918 L 1129.8 874.839 L 1129.88 879.531 z"/>
<path transform="translate(0,0)" fill="rgb(255,255,255)" d="M 1035.76 885.461 C 1038.53 885.067 1041.65 884.421 1044.21 885.76 C 1063.99 896.125 1084.06 907.085 1103.7 917.606 C 1147.06 940.989 1190.58 964.092 1234.24 986.915 C 1221.33 989.131 1215.3 991.834 1204.16 985.859 C 1150.95 962.213 1098.16 937.243 1045.2 913.012 C 1029.67 905.905 1013.88 898.392 998.748 890.522 C 1008.41 888.192 1025.41 886.685 1035.76 885.461 z"/>
<path transform="translate(0,0)" fill="rgb(255,255,255)" d="M 1099.03 878.049 C 1099.72 878.202 1128.25 894.07 1131.45 895.729 C 1185.47 923.78 1239.44 953.127 1294.37 979.342 L 1262.8 983.475 C 1254.91 984.141 1204.31 954.861 1191.87 948.194 L 1066.83 881.832 C 1077.18 880.296 1088.56 879.236 1099.03 878.049 z"/>
<path transform="translate(0,0)" fill="rgb(255,255,255)" d="M 839.631 1264.32 C 848.234 1265.86 858.864 1268.6 867.542 1270.58 C 867.563 1292.59 874.343 1392.7 870.5 1405.56 L 842.516 1409.42 C 842.041 1361.13 840.181 1312.78 839.631 1264.32 z"/>
<path transform="translate(0,0)" fill="rgb(255,255,255)" d="M 807.899 911.712 C 811.194 911.244 813.378 910.814 816.455 912.32 C 835.803 921.789 855.33 932.256 874.513 941.954 L 1017.33 1014.37 L 990.636 1017.66 C 981.732 1011.68 938.034 991.813 925.969 986.043 L 778.673 915.66 C 787.745 913.928 798.583 912.848 807.899 911.712 z"/>
<path transform="translate(0,0)" fill="rgb(255,255,255)" d="M 296.679 972.533 L 311.327 971.319 C 379.098 1004.05 446.785 1039.11 514.811 1071.19 C 522.825 1075.13 519.253 1075 512.2 1076.18 C 504.865 1076.49 492.878 1078.23 485.242 1079.09 C 422.552 1047.5 357.476 1010.61 294.925 977.732 L 290.48 975.282 L 290.33 973.891 L 296.679 972.533 z"/>
<path transform="translate(0,0)" fill="rgb(219,220,219)" d="M 514.811 1071.19 C 522.825 1075.13 519.253 1075 512.2 1076.18 L 514.811 1071.19 z"/>
<path transform="translate(0,0)" fill="rgb(255,255,255)" d="M 1207.05 865.511 C 1208.07 865.343 1211.11 865.517 1212.28 865.549 C 1223.83 876.515 1393.39 954.247 1417.79 964.06 C 1408.73 964.852 1399.38 965.969 1390.31 966.935 C 1380.77 968.133 1366.1 959.116 1356.78 954.699 L 1300.04 927.76 L 1223.2 891.556 C 1210.6 885.624 1189.63 876.54 1178.4 869.293 C 1186.74 867.27 1198.25 866.425 1207.05 865.511 z"/>
<path transform="translate(0,0)" fill="rgb(255,255,255)" d="M 886.36 1274.5 C 896.388 1276.65 906.443 1278.66 916.525 1280.55 C 917.703 1314.95 919.049 1361.38 919.805 1396.78 C 919.827 1397.84 918.034 1398.55 917.215 1398.95 C 908.39 1400.37 899.173 1401.58 890.295 1402.85 C 888.469 1360.13 888.328 1317.28 886.36 1274.5 z"/>
<path transform="translate(0,0)" fill="rgb(255,255,255)" d="M 935.344 1284.2 C 946.669 1285.4 959.471 1287.51 970.864 1289.16 L 971.632 1357.5 C 971.699 1363.51 973.558 1388.12 969.694 1390.71 C 963.767 1391.73 957.825 1392.65 951.87 1393.48 C 947.372 1394.06 943.171 1394.75 938.702 1395.42 L 935.344 1284.2 z"/>
<path transform="translate(0,0)" fill="rgb(255,255,255)" d="M 894.562 900.918 L 908.67 899.791 L 1033.84 960.219 C 1061.92 973.638 1093.18 987.613 1120.69 1001.75 C 1110.07 1002.99 1098.93 1004.48 1088.34 1005.48 C 1023.88 972.994 957.076 937.823 892.216 906.612 C 887.028 902.529 888.18 902.184 894.562 900.918 z"/>
<path transform="translate(0,0)" fill="rgb(219,220,219)" d="M 892.216 906.612 C 887.028 902.529 888.18 902.184 894.562 900.918 L 892.216 906.612 z"/>
<path transform="translate(0,0)" fill="rgb(255,255,255)" d="M 988.717 1291.82 C 993.326 1292.34 997.917 1292.91 1002.5 1293.59 L 1027.36 1297.03 C 1027.51 1315.38 1027.97 1360.93 1027.38 1381.26 C 1027.36 1381.92 1025.38 1382.23 1024.8 1382.36 C 1019.68 1383.29 1014.53 1384.12 1009.37 1384.83 C 1002.73 1385.71 996.388 1386.79 989.792 1387.9 C 989.647 1355.87 989.289 1323.85 988.717 1291.82 z"/>
<path transform="translate(0,0)" fill="rgb(255,255,255)" d="M 1600.84 1303.03 C 1602.42 1302.81 1607.62 1301.56 1607.69 1304.34 C 1608.2 1326.45 1608.02 1349.37 1608.14 1371.45 C 1600.22 1367.69 1592.25 1364.01 1584.25 1360.42 C 1580.32 1358.69 1576.39 1356.84 1572.48 1355.06 C 1563.56 1350.9 1554.67 1346.67 1545.83 1342.36 C 1545.99 1330.71 1545.98 1319.05 1545.81 1307.4 L 1600.84 1303.03 z"/>
<path transform="translate(0,0)" fill="rgb(255,255,255)" d="M 1588.07 1086.53 C 1595.15 1084.57 1626.52 1094.07 1635.69 1096.28 C 1629.67 1098.19 1623.17 1099.92 1617.01 1101.61 C 1585.76 1110.19 1554.76 1119.98 1523.49 1128.33 C 1521.61 1128.84 1516.95 1127.84 1514.94 1127.36 C 1497.47 1123.5 1479.36 1119.73 1462.13 1115.14 C 1502.75 1107.67 1546.49 1094.89 1588.07 1086.53 z"/>
<path transform="translate(0,0)" fill="rgb(255,255,255)" d="M 675.451 1722.94 C 687.456 1721.19 684.731 1722.3 684.89 1733.75 C 684.997 1741.45 684.871 1749.23 684.887 1756.94 L 665.62 1759.76 C 664.167 1759.95 662.713 1760.13 661.26 1760.31 L 631.871 1764.85 C 626.337 1765.66 620.42 1766.78 614.976 1767.36 C 599.128 1769.56 602.089 1770.78 601.961 1753.71 C 601.904 1746.19 602.264 1738.52 602.332 1730.98 C 626.624 1728.04 651.127 1725.96 675.451 1722.94 z"/>
<path transform="translate(0,0)" fill="rgb(255,255,255)" d="M 744.758 1066.79 C 745.029 1066.83 746.806 1067.05 746.841 1067.38 C 747.823 1076.7 747.192 1108.65 747.193 1115.91 C 738.024 1117.23 728.552 1118.75 719.372 1119.83 C 710.502 1120.95 701.646 1122.16 692.804 1123.47 C 689.601 1121.62 690.584 1119.99 690.62 1116.27 L 690.733 1073.31 L 744.758 1066.79 z"/>
<path transform="translate(0,0)" fill="rgb(255,255,255)" d="M 2312.31 1157.72 C 2346.84 1142.74 2383.28 1123.71 2414.66 1103.43 C 2419.97 1100 2474.28 1095.33 2483.73 1094.36 C 2444.14 1125.2 2405.86 1139.61 2357.52 1149.22 C 2346.73 1151.37 2329.77 1155.42 2319.44 1158.81 L 2312.31 1157.72 z"/>
<path transform="translate(0,0)" fill="rgb(255,255,255)" d="M 419.583 1489.24 C 420.381 1489.09 422.257 1488.71 422.587 1489.39 C 424.541 1493.42 424.743 1517.61 424.855 1521.71 C 421.119 1522.28 417.478 1522.84 413.747 1523.48 C 401.679 1525.67 389.592 1527.75 377.487 1529.72 L 369.986 1530.95 C 367.778 1531.33 348.345 1535.12 346.56 1534.29 C 345.485 1533.79 345.487 1526.93 345.372 1525.05 C 345.993 1519.51 341.583 1513.52 337.494 1510.19 L 328.899 1503.23 L 356.256 1498.97 C 377.069 1495.63 398.733 1491.78 419.583 1489.24 z"/>
<path transform="translate(0,0)" fill="rgb(255,255,255)" d="M 861.182 905.602 C 865.483 906.583 897.986 924.637 905.303 928.355 L 1064.09 1008.65 L 1041.78 1011.53 C 979.526 977.109 902 940.175 837.628 908.121 L 861.182 905.602 z"/>
<path transform="translate(0,0)" fill="rgb(255,255,255)" d="M 886.413 1049.32 C 890.733 1049.89 888.809 1091.44 888.853 1097.58 C 870.7 1100.04 852.525 1102.34 834.33 1104.46 C 830.224 1104.64 831.939 1062.16 831.936 1056.11 C 850.068 1053.63 868.228 1051.37 886.413 1049.32 z"/>
<path transform="translate(0,0)" fill="rgb(255,255,255)" d="M 422.924 1527.96 C 424.847 1528.61 425.174 1529.97 425.267 1532.06 L 427.75 1598.89 C 414.624 1589.14 400.157 1579.28 387.613 1568.96 L 367.601 1554.29 C 361.271 1549.66 354.873 1545.26 348.538 1540.61 C 363.544 1537.62 378.621 1535 393.754 1532.73 C 397.343 1532.19 400.788 1531.66 404.367 1531.02 C 410.536 1529.9 416.722 1528.88 422.924 1527.96 z"/>
<path transform="translate(0,0)" fill="rgb(255,255,255)" d="M 318.435 1460.37 C 322.071 1459.73 324.126 1459.59 327.151 1461.65 C 339.773 1470.26 353.148 1478.19 364.323 1488.59 C 347.298 1491.4 330.034 1493.75 313.01 1496.44 C 306.974 1497.39 313.18 1514.1 306.689 1508.84 C 292.111 1498.55 268.264 1482.54 255.535 1470.84 C 276.53 1467.52 297.497 1464.03 318.435 1460.37 z"/>
<path transform="translate(0,0)" fill="rgb(255,255,255)" d="M 663.59 1076.74 C 663.867 1076.7 671.676 1075.32 671.75 1076.81 C 672.555 1093.03 671.968 1110.01 672.04 1126.4 C 657.821 1128.21 643.578 1129.97 629.354 1131.76 C 629.002 1131.8 628.648 1131.84 628.297 1131.89 C 626.735 1132.12 623.457 1133.06 621.933 1131.98 C 620.619 1131.04 621.123 1087.35 621.126 1081.69 L 663.59 1076.74 z"/>
<path transform="translate(0,0)" fill="rgb(255,255,255)" d="M 1046.36 1298.53 C 1057.56 1299.94 1068.22 1300.96 1079.43 1301.95 C 1079.91 1322.04 1080.82 1351.74 1080.97 1372.52 C 1080.97 1373.42 1079.2 1374.07 1078.49 1374.39 C 1067.97 1375.72 1057.47 1377.17 1046.98 1378.77 L 1046.36 1298.53 z"/>
<path transform="translate(0,0)" fill="rgb(255,255,255)" d="M 1536.26 1346.51 C 1539.45 1346.34 1599.07 1374.27 1607.86 1377.61 C 1608 1387.01 1608.06 1396.41 1608.03 1405.81 C 1601.75 1402.88 1590.87 1397.57 1584.54 1395.32 L 1582.72 1394.46 C 1554.81 1381.11 1525.79 1368.47 1497.5 1355.14 C 1504.37 1353.57 1511.91 1351.73 1518.76 1350.3 L 1536.26 1346.51 z"/>
<path transform="translate(0,0)" fill="rgb(255,255,255)" d="M 1218.99 1007.94 C 1221.32 1007.97 1223.66 1008.01 1225.99 1008.04 C 1227.44 1022.09 1226.69 1037.99 1226.8 1052.29 C 1224.16 1052.71 1221.39 1053.23 1218.74 1053.57 L 1180.3 1058.45 C 1179.31 1058.61 1172.94 1060.1 1172.85 1058.02 C 1172.22 1043.72 1172.43 1028.39 1172.45 1014.09 C 1182.21 1012.86 1192.2 1011.32 1201.88 1010.15 L 1218.99 1007.94 z"/>
<path transform="translate(0,0)" fill="rgb(255,255,255)" d="M 1558.13 1123.78 C 1565.67 1123.46 1616.56 1136.84 1628.86 1139.56 C 1668.37 1148.13 1707.97 1156.28 1747.65 1164.03 C 1740.6 1166.57 1733.58 1169.22 1726.61 1171.98 C 1663.84 1159.97 1595.92 1146.65 1533.88 1131.33 L 1558.13 1123.78 z"/>
<path transform="translate(0,0)" fill="rgb(255,255,255)" d="M 600.893 1084.32 C 603.857 1086.53 602.462 1129.05 602.492 1135.26 C 587.686 1137.4 572.69 1138.95 557.861 1140.97 C 554.684 1138.24 555.686 1095.87 555.678 1089.55 C 570.719 1087.55 585.792 1085.81 600.893 1084.32 z"/>
<path transform="translate(0,0)" fill="rgb(255,255,255)" d="M 1079.25 1025.44 C 1080.41 1025.25 1087.65 1023.6 1087.74 1026.22 C 1088.27 1040.85 1087.85 1056.08 1087.89 1070.74 C 1073.1 1073.09 1059.09 1074.67 1044.32 1076.65 C 1044.11 1076.67 1038 1077.62 1037.9 1076.66 C 1036.32 1061.89 1036.93 1045.54 1036.6 1030.45 C 1050.83 1028.93 1065.05 1027.26 1079.25 1025.44 z"/>
<path transform="translate(0,0)" fill="rgb(255,255,255)" d="M 800.593 1059.56 C 803.191 1059.23 810.827 1057.33 812.99 1059.2 C 813.953 1060.04 813.387 1103.31 813.359 1107.92 L 784.996 1111.12 C 782.391 1111.41 781.037 1111.52 778.442 1111.97 C 765.996 1113.4 765.987 1115.95 766.002 1103.39 C 766.016 1090.37 765.969 1077.12 765.866 1064.09 C 777.096 1062.76 789.498 1061.43 800.593 1059.56 z"/>
<path transform="translate(0,0)" fill="rgb(255,255,255)" d="M 1710.22 989.284 C 1713.05 989.151 1713.79 989.405 1713.81 992.467 C 1713.93 1010.95 1713.73 1029.43 1713.92 1047.91 C 1702.48 1044.54 1691.04 1040.85 1679.6 1037.56 L 1666.14 1033.16 C 1666.05 1020.82 1666.11 1008.48 1666.32 996.135 C 1681.68 993.158 1694.74 991.045 1710.22 989.284 z"/>
<path transform="translate(0,0)" fill="rgb(255,255,255)" d="M 947.396 1041.72 C 947.916 1041.64 954.355 1040.42 954.475 1041.88 C 955.717 1056.95 955.02 1073.14 955.077 1088.4 C 942.574 1090.29 929.731 1091.52 917.335 1093.63 C 916.425 1093.74 908.015 1095.19 907.921 1094.16 C 906.627 1079.99 907.163 1060.8 907.068 1046.72 L 947.396 1041.72 z"/>
<path transform="translate(0,0)" fill="rgb(255,255,255)" d="M 1292.11 999.31 C 1292.25 999.292 1294.67 998.785 1294.75 999.532 C 1296.27 1013.26 1295.45 1029.04 1295.49 1043.09 L 1248.11 1049.35 C 1243.53 1049.56 1245.67 1010.64 1245.67 1004.64 C 1261.12 1002.67 1276.6 1000.89 1292.11 999.31 z"/>
<path transform="translate(0,0)" fill="rgb(255,255,255)" d="M 1148.53 1016.75 C 1149.03 1016.67 1153.03 1015.9 1153.15 1017.07 C 1154.6 1030.57 1153.83 1049.1 1153.94 1062.43 C 1139.75 1064.56 1125.26 1065.99 1110.97 1067.91 C 1109.7 1067.89 1107.09 1067.83 1107.01 1066.92 C 1106.21 1057.45 1106.37 1030.28 1106.34 1021.9 C 1120.45 1020.21 1134.4 1018.28 1148.53 1016.75 z"/>
<path transform="translate(0,0)" fill="rgb(255,255,255)" d="M 255.164 982.739 C 243.063 977.336 258.554 977.332 263.207 976.972 C 272.551 981.764 282.33 986.642 291.353 991.978 C 296.238 993.732 342.706 1019.14 349.403 1022.93 C 384.892 1043.03 424.69 1061.61 459.375 1081.97 L 442.155 1084.09 C 420.439 1073.26 396.41 1059.52 374.879 1047.79 L 255.164 982.739 z"/>
<path transform="translate(0,0)" fill="rgb(219,220,219)" d="M 255.164 982.739 C 243.063 977.336 258.554 977.332 263.207 976.972 C 272.551 981.764 282.33 986.642 291.353 991.978 C 290.134 991.756 287.563 991.183 286.434 991.211 C 276.239 991.458 264.798 974.767 255.164 982.739 z"/>
<path transform="translate(0,0)" fill="rgb(255,255,255)" d="M 1017.09 1033.06 C 1019.83 1035.36 1018.67 1074.84 1018.69 1080.25 C 1004.26 1082.17 989.82 1083.99 975.363 1085.69 C 972.156 1083.63 973.565 1045.34 973.56 1038.53 C 988.052 1036.56 1002.56 1034.74 1017.09 1033.06 z"/>
<path transform="translate(0,0)" fill="rgb(255,255,255)" d="M 1848.52 1501.56 C 1849.18 1501.56 1851.61 1501.45 1851.74 1502.12 C 1852.99 1508.88 1852.56 1528.55 1852.65 1534.56 C 1842.83 1536.44 1832.99 1538.17 1823.12 1539.73 L 1794.39 1544.66 C 1793.88 1544.7 1791.81 1544.89 1791.71 1544.41 C 1790.6 1539.01 1791.17 1518.71 1791.2 1514.3 C 1810.47 1510.41 1829.37 1505.58 1848.52 1501.56 z"/>
<path transform="translate(0,0)" fill="rgb(255,255,255)" d="M 1475.84 976.76 C 1476.62 976.606 1481.37 975.635 1481.52 977.114 C 1482.75 989.269 1482.13 1005.91 1482.22 1018.04 L 1460 1021.09 L 1442.36 1023.27 C 1440.85 1023.54 1435.84 1024.68 1435.74 1022.02 C 1435.24 1008.97 1435.62 994.571 1435.75 981.581 L 1475.84 976.76 z"/>
<path transform="translate(0,0)" fill="rgb(255,255,255)" d="M 1351.82 991.69 C 1356.11 990.967 1358.3 990.513 1358.28 995.505 L 1358.13 1034.65 C 1345.73 1036.71 1333.16 1038.1 1320.67 1039.53 C 1320.07 1039.64 1315.53 1040.42 1315.37 1039.43 C 1313.39 1026.54 1313.98 1009.88 1313.97 996.615 C 1326.57 994.817 1339.18 993.175 1351.82 991.69 z"/>
<path transform="translate(0,0)" fill="rgb(255,255,255)" d="M 542.194 1147.76 L 547.508 1148.59 C 547.963 1149.24 548.592 1149.78 548.875 1150.52 C 550.282 1154.17 549.817 1427.56 548.404 1454.51 L 546.017 1453.75 C 545.432 1453.13 544.847 1452.51 544.262 1451.88 C 543.852 1439.56 543.608 1403.46 543.511 1393.04 L 542.194 1147.76 z"/>
<path transform="translate(0,0)" fill="rgb(255,255,255)" d="M 448.715 913.002 C 449.359 912.94 451.846 912.597 452.049 913.128 C 453.925 918.02 452.86 943.366 452.832 947.76 C 447.947 948.428 441.687 949.379 436.874 949.864 L 405.197 953.223 C 404.962 953.23 401.945 953.529 401.853 952.678 C 400.735 942.371 401.554 929.622 401.784 919.075 L 448.715 913.002 z"/>
<path transform="translate(0,0)" fill="rgb(255,255,255)" d="M 1144.6 1307.07 C 1155.92 1307.53 1166.76 1308.23 1178.02 1308.82 C 1178.07 1316.42 1179.11 1356.3 1177.09 1359.39 C 1166.28 1360.74 1155.49 1362.33 1144.75 1364.18 L 1144.6 1307.07 z"/>
<path transform="translate(0,0)" fill="rgb(255,255,255)" d="M 1537.3 969.281 C 1538.37 969.088 1541.93 968.377 1542.17 969.273 C 1543.9 975.861 1542.77 1004.45 1542.73 1009.68 C 1530.18 1011.72 1517.82 1012.95 1505.3 1014.72 C 1503.75 1014.87 1500.5 1015.52 1500.45 1013.13 C 1500.22 1000.03 1500.33 986.29 1500.43 973.222 L 1537.3 969.281 z"/>
<path transform="translate(0,0)" fill="rgb(255,255,255)" d="M 1412.18 984.261 C 1415.94 983.425 1417.04 984.099 1417.02 988.053 C 1416.91 1001.03 1416.95 1014.01 1417.13 1026.99 C 1405.08 1028.29 1393.07 1029.86 1381.1 1031.69 C 1380.38 1031.73 1377.62 1032.26 1377.5 1031.22 C 1376.22 1019.15 1376.87 1000.5 1377 988.598 L 1395 986.407 L 1412.18 984.261 z"/>
<path transform="translate(0,0)" fill="rgb(255,255,255)" d="M 1098.39 1303.48 C 1107.06 1304.07 1116.99 1304.99 1125.68 1305.83 C 1125.99 1321 1126.69 1352.1 1125.69 1367.03 C 1117.01 1368.3 1108.36 1369.68 1099.65 1370.72 L 1098.39 1303.48 z"/>
<path transform="translate(0,0)" fill="rgb(255,255,255)" d="M 378.355 921.756 C 378.889 921.665 381.914 921.114 382.069 921.877 C 383.811 930.438 383.077 947.549 383.119 956.026 C 369.127 957.575 354.209 959.073 340.292 961.022 C 339.043 961.16 336.117 961.544 335.859 960.556 C 334.516 955.399 335.211 931.491 335.21 927.614 C 349.498 925.013 363.93 923.396 378.355 921.756 z"/>
<path transform="translate(0,0)" fill="rgb(255,255,255)" d="M 1271.93 815.466 C 1284.37 813.552 1282.74 814.167 1282.54 825.652 C 1282.41 833.533 1282.2 841.648 1282.17 849.53 C 1271.45 850.62 1260.67 852.314 1250.04 853.306 C 1234.22 855.002 1237.32 857.757 1236.85 840.079 C 1236.67 833.175 1236.74 826.168 1236.67 819.259 C 1248.43 818.116 1260.19 816.852 1271.93 815.466 z"/>
<path transform="translate(0,0)" fill="rgb(255,255,255)" d="M 632.886 890.603 C 636.531 891.742 634.877 920.765 634.865 925.92 L 594.053 930.959 C 588.446 930.293 590.9 901.733 590.909 895.349 C 605.018 894.116 618.836 892.142 632.886 890.603 z"/>
<path transform="translate(0,0)" fill="rgb(255,255,255)" d="M 684.101 884.526 C 697.957 882.893 698.351 880.122 698.032 894.374 C 697.861 901.997 697.924 910.347 697.922 918.002 L 666.401 922.164 C 651.716 923.974 653.843 925.933 653.765 910.001 C 653.729 902.745 653.697 895.317 653.631 888.052 L 667.502 886.433 C 672.42 885.89 679.29 885.232 684.101 884.526 z"/>
<path transform="translate(0,0)" fill="rgb(255,255,255)" d="M 558 899.548 C 559.728 899.34 571.472 897.376 571.697 898.872 C 573.183 908.759 572.452 923.639 572.409 933.651 C 564.452 934.782 551.899 936.534 544.002 937.136 C 541.115 937.518 530.167 940.258 529.997 936.982 C 529.465 926.779 529.581 912.92 529.609 902.827 C 538.769 901.882 548.903 900.9 558 899.548 z"/>
<path transform="translate(0,0)" fill="rgb(255,255,255)" d="M 1042.19 841.803 C 1049.43 840.274 1047.15 845.645 1047.33 851.676 C 1047.58 859.942 1047.4 868.458 1047.38 876.749 C 1035.06 878.091 1022.79 879.521 1010.46 880.672 C 1009.72 880.837 1005.81 881.654 1005.62 880.419 C 1004.11 870.408 1004.85 855.791 1004.61 845.765 L 1042.19 841.803 z"/>
<path transform="translate(0,0)" fill="rgb(255,255,255)" d="M 255.024 1114.43 C 264.773 1116.05 277.174 1119.65 287.11 1121.96 C 287.196 1130.3 287.746 1161.94 286.712 1168.45 C 276.569 1165.7 264.183 1161.58 253.942 1158.31 C 253.971 1143.68 254.331 1129.05 255.024 1114.43 z"/>
<path transform="translate(0,0)" fill="rgb(255,255,255)" d="M 745.253 877.046 C 746.779 876.841 757.383 875.151 757.624 876.199 C 759.344 883.661 758.592 903.618 758.653 910.679 L 727.152 914.558 C 726.468 914.663 717.19 916.27 716.999 914.639 C 715.75 903.994 716.245 891.396 716.179 880.51 C 725.911 879.579 735.542 878.219 745.253 877.046 z"/>
<path transform="translate(0,0)" fill="rgb(255,255,255)" d="M 371.398 1165.68 L 373.881 1167.47 C 375.977 1173.71 375.063 1483.14 373.733 1487.98 L 371.967 1486.45 C 369.879 1478.94 368.4 1177.2 371.398 1165.68 z"/>
<path transform="translate(0,0)" fill="rgb(255,255,255)" d="M 1161.75 828.012 C 1164.12 828.02 1164.59 829.562 1164.59 831.816 L 1164.46 862.994 L 1127.68 867.445 C 1126.91 867.374 1124.49 867.293 1124.31 866.533 C 1122.8 860.002 1123.57 838.596 1123.54 832.38 L 1161.75 828.012 z"/>
<path transform="translate(0,0)" fill="rgb(255,255,255)" d="M 977.633 849.223 C 988.383 847.347 986.138 848.923 986.305 859.024 C 986.439 867.136 986.285 875.327 986.328 883.45 C 976.818 884.905 967.282 886.184 957.725 887.287 C 946.722 888.61 945.614 891.286 945.904 880.305 C 946.138 871.416 945.96 861.831 945.976 852.903 C 956.545 851.82 967.098 850.593 977.633 849.223 z"/>
<path transform="translate(0,0)" fill="rgb(255,255,255)" d="M 508.772 905.563 C 513.164 906.249 511.202 935.138 511.24 940.909 C 498.951 942.444 486.69 944.228 474.371 945.502 C 470.152 945.932 472.147 914.345 472.132 909.8 C 484.328 908.237 496.542 906.824 508.772 905.563 z"/>
<path transform="translate(0,0)" fill="rgb(255,255,255)" d="M 910.52 1269.67 C 915.713 1268.09 939.014 1260.79 941.949 1261.2 C 976.404 1266.05 1021.43 1278.39 1055.26 1286.39 L 1053.8 1287.7 C 1050.66 1290.61 1048.78 1287.96 1044.09 1289.1 C 1005.53 1287.02 949.413 1276.41 910.52 1269.67 z"/>
<path transform="translate(0,0)" fill="rgb(255,255,255)" d="M 812.342 869.261 C 813.053 869.132 816.402 868.365 816.608 869.448 C 818.288 878.274 817.327 894.567 817.341 903.355 C 813.4 903.797 809.514 904.357 805.623 904.8 L 782.43 907.644 C 781.297 907.675 778.512 907.803 778.21 906.97 C 776.506 902.267 777.238 877.418 777.232 873.278 L 793.127 871.469 L 812.342 869.261 z"/>
<path transform="translate(0,0)" fill="rgb(255,255,255)" d="M 1098.16 835.506 C 1098.92 835.368 1103.74 834.424 1103.96 835.775 C 1105.53 845.093 1104.7 860.926 1104.58 870.092 C 1094.35 871.44 1084.28 872.399 1074.06 873.582 C 1073.66 873.609 1073.26 873.637 1072.86 873.665 L 1070.63 873.858 C 1069.6 873.939 1066.76 874.03 1066.61 873.241 C 1065.31 866.251 1066.04 845.599 1066.05 839.054 C 1076.81 837.739 1087.41 836.715 1098.16 835.506 z"/>
<path transform="translate(0,0)" fill="rgb(255,255,255)" d="M 1514.36 1309.48 C 1521.93 1308.91 1529.46 1308.59 1537.04 1308.12 C 1536.99 1318.92 1536.83 1329.72 1536.56 1340.51 C 1530.5 1341.77 1524.47 1343.14 1518.44 1344.52 C 1511.77 1345.84 1505.12 1347.25 1498.49 1348.75 C 1498.63 1335.91 1498.59 1323.06 1498.38 1310.22 C 1503.58 1310.06 1509.22 1310.01 1514.36 1309.48 z"/>
<path transform="translate(0,0)" fill="rgb(255,255,255)" d="M 915.897 856.716 C 919.487 856.2 923.095 855.814 926.713 855.56 C 926.426 867.288 926.288 879.018 926.3 890.75 C 917.192 891.565 908.098 892.526 899.021 893.63 C 897.303 893.791 891.414 895.3 889.962 894.234 C 887.61 892.509 888.852 864.102 888.793 859.868 C 897.588 858.644 907.039 857.729 915.897 856.716 z"/>
<path transform="translate(0,0)" fill="rgb(219,220,219)" d="M 593.891 1174.22 C 595.105 1174.66 599.288 1176.28 599.409 1177.9 C 600.912 1197.91 602.689 1217.91 604.422 1237.9 L 614.86 1361.67 C 617.256 1388.67 620.359 1415.25 622.07 1442.33 C 619.06 1442.23 620.407 1442.71 618.015 1440.95 C 613.599 1411.89 610.964 1373.28 608.438 1343.48 L 593.891 1174.22 z"/>
<path transform="translate(0,0)" fill="rgb(255,255,255)" d="M 1216.48 821.816 C 1220.03 823.645 1218.09 851.81 1218.06 857.187 C 1207.25 858.073 1196.81 859.518 1186.04 860.496 C 1180.98 859.048 1183.26 831.648 1183.27 825.372 C 1194.31 824.438 1205.41 822.918 1216.48 821.816 z"/>
<path transform="translate(0,0)" fill="rgb(255,255,255)" d="M 861.883 862.965 C 862.841 862.822 869.412 861.68 869.627 863.092 C 871.112 872.829 870.328 887.124 870.398 897.082 C 860.993 897.867 853.153 899.234 843.921 900.353 C 842.673 900.505 836.229 901.957 836.013 900.149 C 834.874 890.598 835.537 875.234 835.594 866.03 C 844.341 864.874 853.105 863.852 861.883 862.965 z"/>
<path transform="translate(0,0)" fill="rgb(255,255,255)" d="M 308.401 930.486 C 309.104 930.366 315.728 929.227 315.963 930.538 C 317.612 939.749 316.73 954.936 316.515 964.068 C 307.909 965.13 299.08 966.015 290.448 966.986 C 288.996 967.232 284.215 968.032 283.917 966.961 C 282.347 961.322 283.3 938.081 283.342 933.495 L 308.401 930.486 z"/>
<path transform="translate(0,0)" fill="rgb(219,220,219)" d="M 657.314 1204.26 L 660.145 1205.91 C 663.134 1212.4 675.52 1412.47 674.783 1435.7 L 671.804 1434.76 C 669.335 1431.46 667.697 1385.41 667.328 1378.49 C 665.475 1343.75 662.791 1309.01 660.965 1274.28 C 659.743 1251.04 657.957 1227.48 657.314 1204.26 z"/>
<path transform="translate(0,0)" fill="rgb(219,220,219)" d="M 643.097 888.22 L 645.734 890.257 C 648.138 898.96 643.97 935.245 647.47 937.326 C 663.998 947.151 683.592 955.642 701.126 963.813 L 815.331 1017 C 822.33 1020.27 845.998 1030.38 850.289 1034.5 L 848.347 1036.8 C 799.632 1012.3 746.134 990.169 696.98 965.965 C 687.867 961.477 644.808 942.541 639.689 937.546 C 645.384 922.768 638.754 899.615 643.097 888.22 z"/>
<path transform="translate(0,0)" fill="rgb(219,220,219)" d="M 1289.63 812.789 C 1291.44 813.416 1291.45 813.61 1293.08 814.682 C 1294.66 822.659 1293.82 849.951 1293.68 859.896 C 1307.44 864.134 1491.26 948.596 1495.19 953.677 C 1485.16 954.059 1410.51 917.577 1396.5 911.119 C 1361.61 895.038 1323.51 877.757 1289.02 860.7 C 1289.02 845.865 1288.6 827.232 1289.63 812.789 z"/>
<path transform="translate(0,0)" fill="rgb(219,220,219)" d="M 390.548 918.996 C 396.822 923.184 394.15 952.948 393.999 961.461 C 447.918 987.323 536.162 1035.08 592.516 1064.54 C 593.09 1065.57 593.663 1066.61 594.237 1067.65 C 584.099 1066.76 410.071 973.554 390.012 963.027 C 389.83 952.931 388.961 928.105 390.548 918.996 z"/>
<path transform="translate(0,0)" fill="rgb(219,220,219)" d="M 584.18 945.718 C 582.096 944.473 580.103 944.18 579.814 941.867 C 578.666 932.674 577.243 904.457 582.441 897.298 C 585.227 902.967 584.05 933.367 583.781 941.649 L 738.571 1020.62 C 745.736 1024.31 778.02 1039.89 781.529 1043.37 C 776.434 1045.72 761.578 1036.89 756.098 1033.94 C 700.125 1003.76 640.773 976.992 585.272 946.137 C 585.063 946.152 584.853 946.167 584.643 946.182 C 584.316 946.001 584.478 946.139 584.18 945.718 z"/>
<path transform="translate(0,0)" fill="rgb(219,220,219)" d="M 1054.86 839.074 L 1056.82 839.921 C 1060.42 844.605 1058.7 874.966 1058.59 883.692 C 1075.3 891.835 1091.79 900.839 1108.25 909.603 C 1154.2 934.078 1200.36 958.338 1246 983.387 C 1246.44 984.3 1246.87 985.212 1247.31 986.125 C 1240.57 986.184 1073.42 895.609 1053.96 885.357 C 1053.88 874.73 1053.21 848.33 1054.86 839.074 z"/>
<path transform="translate(0,0)" fill="rgb(255,255,255)" d="M 1625.85 996.286 C 1637.18 995.656 1646.15 996.635 1657.39 997.566 C 1657.55 1007.53 1657.82 1017.67 1657.37 1027.61 C 1657.23 1030.64 1654.08 1029.18 1652.46 1028.67 C 1640.82 1025.08 1629.37 1021.04 1617.72 1017.45 C 1617.9 1005.98 1616.36 1002.96 1625.85 996.286 z"/>
<path transform="translate(0,0)" fill="rgb(219,220,219)" d="M 1226.28 819.322 L 1228.45 821.029 C 1230.82 829.171 1229.4 856.565 1229.12 866.309 C 1244.29 874.387 1265.44 883.553 1281.48 891.102 L 1382.91 938.868 C 1390.94 942.652 1425.87 958.326 1430.19 962.542 C 1418.2 961.716 1248.1 879.864 1224.61 868.223 C 1225.12 856.595 1223.35 828.779 1226.28 819.322 z"/>
<path transform="translate(0,0)" fill="rgb(219,220,219)" d="M 767.009 872.89 L 769.715 874.625 C 772.35 880.428 771.014 910.164 769.35 917.165 C 824.989 941.928 919.639 989.606 978.481 1017.13 C 979.149 1018.14 979.817 1019.15 980.485 1020.16 C 972.663 1019.73 789.067 930.284 766.427 919.404 C 765.985 908.335 764.629 882.43 767.009 872.89 z"/>
<path transform="translate(0,0)" fill="rgb(219,220,219)" d="M 324.372 927.779 L 326.972 929.406 C 329.484 934.48 327.977 962.09 327.753 969.351 L 466.188 1037.73 C 486.615 1047.81 515.094 1060.48 534.388 1071.35 L 534.311 1073.96 C 508.584 1064 473.345 1045.41 447.823 1032.79 C 406.325 1012.68 365.028 992.163 323.939 971.235 C 323.707 959.272 323.188 939.149 324.372 927.779 z"/>
<path transform="translate(0,0)" fill="rgb(219,220,219)" d="M 705.873 880.377 L 708.353 882.269 C 710.37 888.715 709.384 916.265 709.217 924.821 C 758.079 949.72 808.717 972.966 857.757 997.624 C 868.944 1003.25 908.873 1021.29 917.019 1027.63 C 898.167 1026.82 804.578 973.004 779.771 963.563 C 763.389 957.328 722.08 935.221 704.71 926.144 C 704.544 915.712 703.662 889.006 705.873 880.377 z"/>
<path transform="translate(0,0)" fill="rgb(219,220,219)" d="M 460.312 910.241 L 463.655 911.407 C 466.783 917.723 464.597 947.867 464.089 955.957 C 525.163 991.381 597.682 1023.32 658.774 1058.75 C 657.029 1059.36 654.519 1060.09 652.764 1059.26 C 634.336 1050.51 616.052 1040.33 598.026 1030.81 C 551.962 1006.89 506.108 982.573 460.47 957.856 C 460 941.988 459.947 926.111 460.312 910.241 z"/>
<path transform="translate(0,0)" fill="rgb(219,220,219)" d="M 1172.46 825.506 L 1174.95 826.937 C 1177.67 832.624 1176.07 867.013 1175.89 874.993 L 1324.35 944.885 C 1331.7 948.364 1369.96 965.117 1372.93 970.037 C 1362.92 969.253 1193.54 887.421 1171.37 876.992 C 1171.41 866.132 1170.81 834.364 1172.46 825.506 z"/>
<path transform="translate(0,0)" fill="rgb(219,220,219)" d="M 877.276 859.965 L 880.446 861.219 C 883.852 868.369 881.039 897.283 880.183 905.847 C 893.541 912.491 1076.11 1004.65 1077.3 1006.64 L 1074.56 1008.13 C 1059 1001.85 877.595 909.695 873.006 904.969 C 877.709 902.866 876.179 904.427 878.775 900.947 C 876.048 886.283 876.993 874.799 877.276 859.965 z"/>
<path transform="translate(0,0)" fill="rgb(255,255,255)" d="M 1195.92 1310.03 L 1219.8 1311.19 C 1219.83 1318.01 1220.94 1349.22 1218.61 1352.96 C 1211.46 1354 1203.78 1355.04 1196.69 1356.2 C 1196.33 1340.78 1196.4 1325.46 1195.92 1310.03 z"/>
<path transform="translate(0,0)" fill="rgb(219,220,219)" d="M 273.345 975.954 C 271.145 969.648 270.243 939.023 274.827 933.635 C 277.558 941.607 275.962 964.249 275.909 973.763 C 290.471 982.43 310.671 992.179 326.125 1000.36 L 423.289 1051.9 C 434.05 1057.61 471.318 1076.17 478.385 1083.61 C 461.246 1078.3 430.653 1060.05 413.912 1051.58 C 366.952 1027.83 319.905 999.911 273.345 975.954 z"/>
<path transform="translate(0,0)" fill="rgb(219,220,219)" d="M 273.345 975.954 C 271.145 969.648 270.243 939.023 274.827 933.635 C 274.4 944.036 275.599 967.595 273.345 975.954 z"/>
<path transform="translate(0,0)" fill="rgb(219,220,219)" d="M 1112.18 832.425 L 1115.42 833.783 C 1118.3 839.624 1116.61 870.062 1116.37 878.278 C 1152.08 895.139 1188.3 916.168 1223.89 933.766 C 1236.2 939.853 1304.84 974.51 1307.32 978.511 C 1298.01 978.193 1130.74 890.031 1111.83 879.678 L 1112.18 832.425 z"/>
<path transform="translate(0,0)" fill="rgb(255,255,255)" d="M 48.0844 948.238 C 57.655 950.909 67.0737 954.097 76.2989 957.788 C 76.6799 969.166 76.6381 980.554 76.1736 991.929 C 66.0281 989.174 57.7928 986.807 47.7735 983.677 C 47.7135 971.863 47.8171 960.049 48.0844 948.238 z"/>
<path transform="translate(0,0)" fill="rgb(219,220,219)" d="M 518.765 902.987 L 521.238 904.407 C 524.041 910.197 522.429 938.325 522.182 946.375 C 536.553 954.798 559.016 965.4 574.252 973.306 L 676.601 1027.04 C 689.282 1033.79 710.832 1043.77 721.907 1051.12 C 712.745 1051.63 660.339 1022.52 648.903 1016.55 L 518.29 948.511 C 518.197 935.008 517.532 915.937 518.765 902.987 z"/>
<path transform="translate(0,0)" fill="rgb(219,220,219)" d="M 825.915 865.622 C 831.108 869.921 828.78 900.979 828.64 909.029 L 974.482 982.956 C 982.813 987.18 1026.94 1008.68 1031.71 1013.12 C 1028.13 1012.94 1025.78 1012.74 1022.51 1011.14 C 973.91 987.33 926.054 961.943 877.559 937.895 C 859.919 929.147 842.185 920.225 825.013 910.609 C 824.63 899.918 823.341 874.606 825.915 865.622 z"/>
<path transform="translate(0,0)" fill="rgb(255,255,255)" d="M 1275.33 1313 C 1286.46 1313.02 1297.23 1313.37 1308.33 1313.56 C 1308.43 1318.72 1310.19 1337.54 1306.06 1339.83 C 1295.9 1341.57 1285.71 1343.09 1275.49 1344.4 C 1275.37 1334.24 1275.05 1323.09 1275.33 1313 z"/>
<path transform="translate(0,0)" fill="rgb(219,220,219)" d="M 984.256 893.741 C 994.533 893.311 1021.84 907.829 1032.7 912.86 L 1106.7 946.979 L 1166.73 974.453 C 1176.86 979.023 1193.24 985.788 1202.21 991.019 C 1198.31 991.571 1196.64 991.856 1192.8 990.244 C 1157.48 975.433 1121.74 958.263 1086.99 942.162 L 1021.86 911.876 C 1010.75 906.696 994.467 899.637 984.256 893.741 z"/>
<path transform="translate(0,0)" fill="rgb(219,220,219)" d="M 919.695 898.74 C 923.304 898.348 924.452 898.361 927.902 899.938 C 968.214 918.368 1008.61 938.225 1048.56 957.318 L 1104.91 984.237 C 1113.79 988.502 1128.13 994.893 1135.83 999.932 C 1124.42 1000.31 1093.83 983.239 1081.39 977.199 L 1006.04 941.137 L 951.424 914.828 C 942.16 910.373 928.031 904.099 919.695 898.74 z"/>
<path transform="translate(0,0)" fill="rgb(219,220,219)" d="M 768.045 1244.06 C 771.198 1244.8 770.221 1244.3 772.615 1246.3 C 773.785 1253.49 773.13 1295.11 773.137 1304.77 C 773.483 1343.55 773.545 1382.32 773.323 1421.1 L 769.452 1420.13 C 767.635 1416.74 768.337 1262.77 768.045 1244.06 z"/>
<path transform="translate(0,0)" fill="rgb(255,255,255)" d="M 717.081 1226.68 L 719.603 1228.5 C 721.703 1233.86 721.245 1410.25 720.806 1428.77 L 717.932 1428.19 C 715.697 1424.98 715.82 1242.57 717.081 1226.68 z"/>
<path transform="translate(0,0)" fill="rgb(255,255,255)" d="M 1238.3 1311.94 L 1257.09 1312.53 C 1257.15 1317.25 1257.83 1344.21 1257.13 1347.01 C 1250.97 1348.12 1244.85 1349.08 1238.69 1350.23 L 1238.3 1311.94 z"/>
<path transform="translate(0,0)" fill="rgb(219,220,219)" d="M 828.979 1260.95 L 831.813 1262.9 C 833.46 1269.22 836.369 1403.93 834.469 1412.22 C 830.526 1408.54 826.105 1272.24 828.979 1260.95 z"/>
<path transform="translate(0,0)" fill="rgb(219,220,219)" d="M 875.335 1271.91 C 878.232 1273.2 879.135 1274.76 879.348 1277.88 C 880.268 1291.33 880.44 1305.12 880.828 1318.59 L 883.282 1403.87 C 879.874 1403.7 881.227 1404.4 878.876 1402.36 C 877.254 1378.75 876.916 1353.07 876.151 1329.31 C 875.59 1311.93 874.343 1288.88 875.335 1271.91 z"/>
<path transform="translate(0,0)" fill="rgb(255,255,255)" d="M 1326.21 1313.63 L 1350.75 1313.66 C 1350.76 1320.05 1350.91 1327.03 1350.67 1333.37 C 1347.99 1333.84 1345.17 1334.41 1342.5 1334.77 L 1326.27 1336.93 C 1326.21 1329.17 1326.19 1321.4 1326.21 1313.63 z"/>
<path transform="translate(0,0)" fill="rgb(219,220,219)" d="M 923.931 1281.53 C 924.094 1281.59 924.257 1281.65 924.42 1281.71 C 923.64 1281.25 927.7 1282.82 927.735 1283.13 C 929.847 1301.66 929.358 1342.28 930.389 1359.37 C 931.397 1376.09 931.633 1387.4 931.152 1397.26 L 929.68 1396.77 C 929.297 1396.64 927.813 1396.2 927.789 1395.92 C 925.933 1374.78 923.703 1298 923.931 1281.53 z"/>
<path transform="translate(0,0)" fill="rgb(169,169,168)" d="M 415.613 1364.92 C 416.373 1365.7 422.716 1470.51 423.014 1480.5 C 420.855 1480.32 415.619 1480.87 415.609 1478.19 C 415.464 1440.43 415.62 1402.67 415.613 1364.92 z"/>
<path transform="translate(0,0)" fill="rgb(219,220,219)" d="M 978.164 1289.08 L 978.623 1289.39 C 978.906 1289.57 981.719 1291.32 981.71 1291.81 C 981.337 1310.08 984.523 1375.98 981.926 1389.97 C 981.568 1389.68 979.336 1387.96 979.33 1387.79 C 978.739 1371.26 976.513 1300.28 978.164 1289.08 z"/>
<path transform="translate(0,0)" fill="rgb(255,255,255)" d="M 1416.57 1313.06 C 1422.1 1312.9 1432.43 1312.01 1437.13 1313.14 C 1439.85 1313.79 1439.6 1321.94 1434.44 1321.3 C 1433.87 1321.23 1427.17 1322.32 1426.25 1322.45 L 1423.85 1322.77 C 1423.3 1322.86 1422.74 1322.94 1422.19 1323.03 C 1420.19 1323.31 1401.53 1326.82 1399.29 1325.52 C 1398.22 1324.9 1397.92 1315.92 1399.31 1314.66 C 1401.46 1312.71 1413.38 1313.21 1416.57 1313.06 z"/>
<path transform="translate(0,0)" fill="rgb(219,220,219)" d="M 1035.24 1296.88 C 1035.95 1297.16 1038.84 1298.22 1038.87 1298.67 C 1040.07 1314.79 1040.19 1368.97 1039.8 1381.07 C 1039.8 1381.07 1035.48 1380.02 1035.49 1379.45 C 1035.83 1354.23 1032.28 1321.57 1035.24 1296.88 z"/>
<path transform="translate(0,0)" fill="rgb(255,255,255)" d="M 1470.01 1311.56 C 1476.54 1311.44 1483.08 1311.2 1489.6 1310.85 C 1489.59 1322.58 1489.89 1334.32 1489.93 1346.07 C 1484.54 1334.86 1480.76 1324.03 1470.33 1316.88 C 1463.04 1314.44 1457.89 1312.51 1470.01 1311.56 z"/>
<path transform="translate(0,0)" fill="rgb(219,220,219)" d="M 1470.33 1316.88 C 1463.04 1314.44 1457.89 1312.51 1470.01 1311.56 C 1470.1 1313.33 1470.21 1315.11 1470.33 1316.88 z"/>
<path transform="translate(0,0)" fill="rgb(219,220,219)" d="M 1087.09 1301.52 C 1087.57 1301.75 1091.09 1303.19 1091.08 1303.87 C 1090.85 1322.92 1095.21 1355.83 1092.09 1373.72 L 1091.58 1373.38 C 1090.72 1372.79 1089.86 1372.21 1089 1371.62 C 1088.35 1354.28 1084.72 1317.92 1087.09 1301.52 z"/>
<path transform="translate(0,0)" fill="rgb(255,255,255)" d="M 1133.44 1305.37 C 1133.61 1305.45 1137.21 1307.08 1137.19 1307.76 C 1136.58 1324.77 1140 1350.52 1137.04 1366.88 C 1136.75 1366.71 1133.2 1364.71 1133.22 1364.39 C 1133.95 1347.58 1130.51 1321.34 1133.44 1305.37 z"/>
<path transform="translate(0,0)" fill="rgb(219,220,219)" d="M 934.949 897.422 C 932.983 892.758 932.914 860.797 933.768 856.415 C 933.983 855.357 934.589 854.42 935.466 853.791 C 938.892 853.938 938.586 858.401 938.627 860.751 C 939.079 866.231 937.43 895.064 940.718 896.189 C 941.055 897.375 941.377 898.564 941.686 899.756 C 938.217 898.909 938.073 898.876 934.949 897.422 z"/>
<path transform="translate(0,0)" fill="rgb(98,98,97)" d="M 934.949 897.422 C 939.869 893.981 937.527 869.435 938.627 860.751 C 939.079 866.231 937.43 895.064 940.718 896.189 C 941.055 897.375 941.377 898.564 941.686 899.756 C 938.217 898.909 938.073 898.876 934.949 897.422 z"/>
<path transform="translate(0,0)" fill="rgb(219,220,219)" d="M 754.742 1064.11 C 755.181 1064.33 758.409 1065.7 758.403 1066.44 C 758.272 1080.83 760.664 1102.22 758.256 1116 C 757.971 1115.85 754.414 1114.21 754.423 1113.66 C 754.65 1099.65 752.212 1077.37 754.742 1064.11 z"/>
<path transform="translate(0,0)" fill="rgb(255,255,255)" d="M 545.044 1089.3 C 545.254 1089.4 548.448 1090.73 548.423 1091.43 C 547.899 1106.22 550.737 1129.42 547.973 1143.4 C 547.462 1143.05 544.978 1141.49 544.938 1141.04 C 544.133 1131.92 543.381 1096.64 545.044 1089.3 z"/>
<path transform="translate(0,0)" fill="rgb(219,220,219)" d="M 820.331 1056.49 L 820.819 1056.64 C 821.212 1056.76 824.43 1057.59 824.461 1058.12 C 825.087 1068.73 824.955 1097.53 824.533 1106.75 C 824.362 1106.71 821.188 1106.01 821.142 1105.55 C 819.67 1090.66 819.817 1071.66 820.331 1056.49 z"/>
<path transform="translate(0,0)" fill="rgb(219,220,219)" d="M 896.391 1046.7 C 896.823 1046.9 899.454 1047.89 899.472 1048.38 C 900.008 1062.66 901.376 1083.56 899.441 1097.56 C 898.956 1097.2 896.206 1095.29 896.168 1094.82 C 895.305 1083.99 895.125 1056.32 896.391 1046.7 z"/>
<path transform="translate(0,0)" fill="rgb(219,220,219)" d="M 962.487 1038.87 C 963.155 1039.1 965.98 1039.93 966.04 1040.33 C 967.354 1049.21 966.904 1081.52 966.132 1088.33 C 965.785 1088.18 962.928 1087.11 962.886 1086.67 C 961.574 1073.02 961.836 1052.24 962.487 1038.87 z"/>
<path transform="translate(0,0)" fill="rgb(219,220,219)" d="M 610.871 1081.8 C 610.416 1081.47 613.45 1083.49 613.477 1083.94 C 614.142 1095.17 614.455 1125.54 613.187 1135.26 C 612.833 1134.98 609.834 1132.81 609.86 1132.32 C 610.605 1118.14 607.679 1095.22 610.871 1081.8 z"/>
<path transform="translate(0,0)" fill="rgb(219,220,219)" d="M 1161.38 1014.1 C 1161.6 1014.18 1164.98 1015.28 1165.03 1015.77 C 1166.38 1029.75 1166.02 1047.09 1165.75 1061.33 C 1165.54 1061.3 1161.89 1061.04 1161.84 1060.22 C 1160.97 1046.04 1160.41 1028.24 1161.38 1014.1 z"/>
<path transform="translate(0,0)" fill="rgb(219,220,219)" d="M 1234.12 1005.26 C 1234.46 1005.34 1238.24 1006.07 1238.29 1006.74 C 1239.07 1015.92 1238.83 1043.32 1238.34 1051.27 C 1237.42 1051.11 1234.54 1050.7 1234.44 1049.85 C 1233.45 1040.57 1233.83 1012.71 1234.12 1005.26 z"/>
<path transform="translate(0,0)" fill="rgb(219,220,219)" d="M 679.509 1074.05 C 679.719 1074.15 682.94 1075.54 682.94 1075.89 C 682.948 1090.7 684.743 1111.48 682.586 1125.86 C 682.183 1125.63 679.64 1124.32 679.624 1123.99 C 678.911 1109.26 678.347 1088.38 679.509 1074.05 z"/>
<path transform="translate(0,0)" fill="rgb(219,220,219)" d="M 1303.48 996.612 C 1303.73 996.748 1306.85 998.199 1306.86 998.695 C 1307.24 1012.11 1308.47 1029.38 1307 1042.54 C 1306.56 1042.35 1302.88 1040.93 1302.89 1040.39 C 1303.08 1027.96 1301.08 1008.26 1303.48 996.612 z"/>
<path transform="translate(0,0)" fill="rgb(219,220,219)" d="M 1095.24 1022.64 C 1096.14 1022.89 1099.18 1023.66 1099.23 1024.2 C 1100.06 1032.96 1099.78 1063.43 1099.52 1070.14 C 1097.39 1069.75 1095.25 1069.54 1095.25 1066.97 C 1095.26 1052.23 1094.96 1037.37 1095.24 1022.64 z"/>
<path transform="translate(0,0)" fill="rgb(219,220,219)" d="M 1185.15 1308.93 C 1185.86 1309.18 1188.59 1310.05 1188.65 1310.4 C 1189.97 1318.9 1189.66 1351.01 1189.52 1357.8 C 1188.54 1357.64 1186.75 1357.56 1185.81 1356.83 C 1184.76 1356 1185.05 1313.44 1185.15 1308.93 z"/>
<path transform="translate(0,0)" fill="rgb(255,255,255)" d="M 1550.55 966.526 C 1550.79 966.62 1554.47 967.87 1554.47 968.367 C 1554.53 980.026 1556.05 998.384 1553.55 1009.47 C 1553.21 1009.32 1550.56 1008.29 1550.52 1007.91 C 1549.23 997.676 1549.22 976.479 1550.55 966.526 z"/>
<path transform="translate(0,0)" fill="rgb(219,220,219)" d="M 453.445 1145.34 C 470.056 1142.61 498.621 1137.71 514.796 1139 L 515.399 1140.56 C 497.459 1143.89 471.124 1148.14 453.445 1145.34 z"/>
<path transform="translate(0,0)" fill="rgb(255,255,255)" d="M 1365.68 989.03 L 1367.23 989.773 C 1367.58 989.941 1369.34 990.712 1369.37 991.129 C 1370.05 1000.65 1370.54 1026.48 1368.61 1034.36 C 1368.26 1034.17 1365.7 1032.82 1365.66 1032.46 C 1364.92 1024.47 1364.88 995.541 1365.68 989.03 z"/>
<path transform="translate(0,0)" fill="rgb(219,220,219)" d="M 993.23 846.553 C 993.522 846.643 997.414 847.6 997.404 848.289 C 997.228 859.874 999.64 882.606 995.931 892.773 C 991.802 888.736 992.786 853.538 993.23 846.553 z"/>
<path transform="translate(0,0)" fill="rgb(255,255,255)" d="M 1026.37 1030.66 C 1026.73 1030.87 1029.3 1032.27 1029.33 1032.63 C 1030.03 1041.51 1030.35 1072.79 1029.17 1079.63 C 1028.68 1079.3 1026.23 1077.75 1026.21 1077.3 C 1025.76 1067.7 1024.59 1038.5 1026.37 1030.66 z"/>
<path transform="translate(0,0)" fill="rgb(219,220,219)" d="M 1424.69 981.581 C 1425.12 981.832 1427.81 983.246 1427.83 983.593 C 1428.7 995.471 1429.09 1014.44 1428.14 1025.95 C 1427.89 1025.86 1424.16 1024.74 1424.18 1024.14 C 1424.41 1011.27 1422.54 994.009 1424.69 981.581 z"/>
<path transform="translate(0,0)" fill="rgb(255,255,255)" d="M 1368.85 1313.73 C 1383.37 1313.78 1381.71 1312.81 1380.87 1329.24 C 1365.53 1330.85 1368.81 1330.48 1368.85 1313.73 z"/>
<path transform="translate(0,0)" fill="rgb(219,220,219)" d="M 1683.46 982.902 C 1687.18 982.771 1695.56 982.236 1698.95 984.38 C 1689.93 987.143 1672.82 988.96 1662.79 990.504 C 1658.79 990.93 1655.3 991.374 1651.26 990.975 L 1645.65 990.403 L 1650.23 989.202 C 1662 986.036 1671.44 984.36 1683.46 982.902 z"/>
<path transform="translate(0,0)" fill="rgb(219,220,219)" d="M 1227.39 1310.55 C 1227.9 1310.82 1230.82 1312.24 1230.86 1312.86 C 1231.43 1321.48 1231.82 1344.99 1230.73 1352.34 C 1230.37 1352.13 1227.17 1350.41 1227.17 1349.96 C 1227.16 1338.94 1225.15 1321.1 1227.39 1310.55 z"/>
<path transform="translate(0,0)" fill="rgb(255,255,255)" d="M 321.51 1507.9 C 331.63 1511.64 336.608 1519.67 337.381 1529.96 C 332.871 1528.78 330.688 1526.03 326.989 1523.5 C 318.62 1517.77 320.768 1516.99 321.51 1507.9 z"/>
<path transform="translate(0,0)" fill="rgb(219,220,219)" d="M 1489.18 974.012 C 1489.5 974.113 1492.92 975.066 1492.96 975.578 C 1493.66 983.952 1493.34 1010.42 1493.21 1016.72 C 1493 1016.68 1489.66 1016.15 1489.6 1015.58 C 1488.74 1006.74 1488.98 981.56 1489.18 974.012 z"/>
<path transform="translate(0,0)" fill="rgb(219,220,219)" d="M 1265.1 1312.04 C 1270.08 1315.81 1268.65 1341.24 1267.34 1346.82 C 1262.56 1343.32 1263.85 1317.67 1265.1 1312.04 z"/>
<path transform="translate(0,0)" fill="rgb(219,220,219)" d="M 1315.81 1312.77 C 1322.83 1316.19 1320.42 1333.12 1318.65 1339.25 C 1312.64 1335.58 1314.93 1319.32 1315.81 1312.77 z"/>
<path transform="translate(0,0)" fill="rgb(219,220,219)" d="M 1055.26 1286.39 C 1061.52 1287 1071.16 1289.83 1078.77 1290.96 C 1076.57 1291.54 1074.38 1292.12 1072.18 1292.72 C 1067.27 1291.98 1046.89 1290.34 1044.09 1289.1 C 1048.78 1287.96 1050.66 1290.61 1053.8 1287.7 L 1055.26 1286.39 z"/>
<path transform="translate(0,0)" fill="rgb(219,220,219)" d="M 1599.03 1006.81 C 1616.22 1005.54 1610.3 1013.6 1606.21 1013.72 C 1600.91 1011.85 1587.15 1009.36 1599.03 1006.81 z"/>
<path transform="translate(0,0)" fill="rgb(219,220,219)" d="M 1358.7 1312.98 C 1364.17 1316.84 1362.12 1327.8 1360.7 1333.53 C 1356.51 1327.84 1357.81 1320.45 1358.7 1312.98 z"/>
<path transform="translate(0,0)" fill="rgb(169,169,168)" d="M 2115.85 1143.32 C 2111.31 1147.39 2100.51 1152.71 2094.72 1155.2 L 2093.76 1151.83 C 2097.85 1149.36 2110.98 1145.03 2115.85 1143.32 z"/>
<path transform="translate(0,0)" fill="rgb(219,220,219)" d="M 1388.25 1312.87 C 1394 1316.8 1392.1 1322.6 1390.69 1329.03 C 1385.6 1324.36 1387.18 1319.68 1388.25 1312.87 z"/>
<path transform="translate(0,0)" fill="rgb(169,169,168)" d="M 2033.22 1224.38 C 2036.69 1222.78 2045.23 1218.61 2048.71 1218.03 L 2053.37 1220.79 C 2047.57 1222.23 2039.03 1224.83 2033.22 1224.38 z"/>
<path transform="translate(0,0)" fill="rgb(169,169,168)" d="M 1737.47 1276.57 C 1741.53 1275.65 1745.1 1274.61 1749.25 1274.08 C 1749.41 1276.32 1750.24 1276.06 1752.16 1276.98 C 1748.12 1277.9 1742.07 1278.39 1737.23 1279.34 L 1737.47 1276.57 z"/>
<path transform="translate(0,0)" fill="rgb(169,169,168)" d="M 2175.35 1192.63 C 2179.32 1190.47 2185.98 1186.72 2190.28 1185.68 L 2194.92 1188.02 C 2188.73 1189.47 2181.46 1191.52 2175.35 1192.63 z"/>
<path transform="translate(0,0)" fill="rgb(169,169,168)" d="M 1396.24 1257.63 C 1408.13 1257.97 1409.5 1261.46 1395.14 1261.4 L 1396.24 1257.63 z"/>
<path transform="translate(0,0)" fill="rgb(148,148,147)" d="M 1884.98 1256.03 C 1889.16 1254.21 1894.7 1251.52 1899.08 1250.77 L 1903.63 1252.89 C 1897.55 1254.33 1891.17 1255.19 1884.98 1256.03 z"/>
<path transform="translate(0,0)" fill="rgb(148,148,147)" d="M 1161.36 1298.96 C 1158.96 1298.96 1148.8 1299.32 1147.1 1297.64 C 1147.09 1297.45 1147.07 1297.26 1147.06 1297.07 C 1148.28 1295.96 1153.26 1295.94 1154.76 1295.86 L 1161.36 1298.96 z"/>
<path transform="translate(0,0)" fill="rgb(219,220,219)" d="M 1446.4 1313.4 C 1447.42 1312.96 1448.6 1313.14 1449.43 1313.87 C 1450.27 1314.59 1450.61 1315.73 1450.32 1316.8 C 1450.02 1317.86 1449.14 1318.67 1448.05 1318.86 C 1446.62 1319.12 1445.22 1318.26 1444.8 1316.86 C 1444.38 1315.47 1445.07 1313.98 1446.4 1313.4 z"/>
<path transform="translate(0,0)" fill="rgb(98,98,97)" d="M 1078.77 1290.96 C 1081.71 1291.3 1082.48 1291.39 1085.31 1292.44 L 1085.68 1293.12 L 1085.93 1293.05 C 1084.65 1294.86 1074.21 1293.12 1072.18 1292.72 C 1074.38 1292.12 1076.57 1291.54 1078.77 1290.96 z"/>
<path transform="translate(0,0)" fill="rgb(219,220,219)" d="M 1924.34 1204.77 C 1925.37 1204.77 1929.72 1204.42 1930.27 1205.72 C 1929.61 1207.13 1924.14 1208.96 1922.63 1209.62 L 1924.34 1204.77 z"/>
<path transform="translate(0,0)" fill="rgb(98,98,97)" d="M 1737.23 1279.34 C 1735.47 1279.7 1729.45 1280.93 1728.03 1279.53 L 1728.05 1279.36 C 1730.06 1277.68 1734.97 1276.89 1737.47 1276.57 L 1737.23 1279.34 z"/>
<path transform="translate(0,0)" fill="rgb(169,169,168)" d="M 2304.74 1160.62 C 2307.37 1159.52 2309.61 1158.66 2312.31 1157.72 L 2319.44 1158.81 L 2315.09 1159.98 C 2313.4 1160.45 2312.93 1160.63 2311.41 1161.38 L 2304.74 1160.62 z"/>
<path transform="translate(0,0)" fill="rgb(98,98,97)" d="M 2311.41 1161.38 C 2309.83 1161.86 2300.79 1164.96 2299.59 1163.11 C 2299.67 1162.93 2299.74 1162.75 2299.82 1162.57 C 2301.84 1161.57 2302.44 1161.21 2304.74 1160.62 L 2311.41 1161.38 z"/>
<path transform="translate(0,0)" fill="rgb(66,66,65)" d="M 1731.62 1270.81 C 1733.36 1270.08 1737.84 1269.14 1739.26 1270.83 C 1739.12 1272.65 1735.49 1271.94 1734.15 1272.04 C 1733.31 1271.63 1732.47 1271.22 1731.62 1270.81 z"/>
<path transform="translate(0,0)" fill="rgb(219,220,219)" d="M 832.116 1034.29 C 833.341 1034.78 835.33 1035.16 835.616 1036.68 C 834.843 1037.94 829.02 1038.23 827.772 1038.4 C 829.196 1037.01 830.644 1035.64 832.116 1034.29 z"/>
<path transform="translate(0,0)" fill="rgb(219,220,219)" d="M 1179.46 990.351 C 1186.32 993.132 1182.95 993.49 1177.67 994.743 C 1178.26 993.261 1178.82 991.814 1179.46 990.351 z"/>
<path transform="translate(0,0)" fill="rgb(148,148,147)" d="M 514.796 1139 C 516.114 1139.12 517.758 1139.01 518.699 1140.09 C 518.449 1141.11 515.515 1140.57 515.399 1140.56 L 514.796 1139 z"/>
<path transform="translate(0,0)" fill="rgb(7,7,7)" d="M 2338.58 1475.52 C 2381.77 1475.16 2427.84 1485.73 2460.27 1514.75 C 2526.22 1573.74 2483.72 1649.73 2411.05 1673.74 C 2384.05 1682.67 2367.73 1685.7 2339.25 1686.74 C 2295.94 1687.16 2254.26 1675.44 2219.65 1647.86 C 2180.3 1616.5 2170.01 1565.72 2205.47 1526.68 C 2237.84 1491.05 2291.53 1478.15 2338.58 1475.52 z"/>
<path transform="translate(0,0)" fill="rgb(255,255,255)" d="M 2327.97 1484.25 C 2370.65 1480.16 2411.57 1490.14 2446.45 1515.15 C 2407.7 1557.92 2361.38 1573.87 2305.64 1584.72 C 2265.86 1591.53 2236.21 1591.12 2196.29 1589.9 C 2196.15 1588.86 2196.03 1587.82 2195.92 1586.78 C 2189.16 1518.79 2274.28 1489.06 2327.97 1484.25 z"/>
<path transform="translate(0,0)" fill="rgb(255,255,255)" d="M 2464.01 1533.38 C 2469.72 1539 2474.31 1548.36 2476.87 1555.98 C 2496.73 1615.04 2445 1656.05 2394.41 1670.6 C 2343.72 1685.17 2294.14 1681.12 2247.64 1656.12 C 2227.33 1643.76 2214.25 1631.8 2203.26 1610.91 C 2262.06 1612.45 2334.49 1611.71 2390.37 1593.53 C 2424.67 1582.37 2447.94 1565.62 2464.01 1533.38 z"/>
<path transform="translate(0,0)" fill="rgb(255,255,255)" d="M 2453.35 1522.36 L 2454.31 1524.15 C 2449.01 1554.7 2413.59 1577.52 2386.4 1586.2 C 2327.48 1605.01 2260.29 1604.03 2199.36 1603.46 L 2199.11 1599.44 C 2204.05 1595.94 2223.23 1598.6 2230.91 1598.47 C 2311.41 1597.13 2395.41 1582.78 2453.35 1522.36 z"/>
<path transform="translate(0,0)" fill="rgb(7,7,7)" d="M 2030.5 1350.45 C 2046.63 1351.3 2065.28 1354.38 2073.95 1369.51 C 2084.41 1387.76 2069.71 1399.68 2055.8 1407.42 C 2060.27 1437 2063.46 1471.97 2069.55 1501.19 C 2074.96 1519.68 2102.12 1552.25 2098.69 1572.65 C 2091.96 1612.55 2075 1654.25 2065.1 1693.98 C 2078.76 1695.42 2143.74 1703.56 2125.5 1734.02 C 2116.89 1748.4 2080.51 1751.84 2063.5 1753.94 L 2063.53 1755.11 L 2063.54 1757.05 C 2063.85 1778.42 2057.66 1783.64 2037.61 1787.81 C 2035.73 1787.74 2033.85 1787.63 2031.97 1787.5 C 2007.92 1785.64 2003.51 1774.81 2005.21 1753.48 C 1992.76 1752.21 1959.77 1748.47 1950.74 1741.04 C 1909.21 1706.86 1989.57 1695.57 2004.02 1693.8 C 1998.33 1674.68 1972.29 1586.84 1972.52 1571.54 C 1972.96 1542.74 1993.84 1528.18 2000.86 1504.97 C 2007.42 1483.32 2012.06 1433.57 2014.37 1409.35 C 1969.64 1392.72 1985.18 1355.02 2030.5 1350.45 z"/>
<path transform="translate(0,0)" fill="rgb(255,255,255)" d="M 2025.84 1411.24 C 2032.58 1411.73 2038.38 1411.21 2045.1 1410.81 C 2048.36 1440.01 2053.23 1482.01 2060.83 1510.48 C 2061.76 1513.94 2072.37 1530.2 2074.9 1535.16 C 2086.24 1557.41 2091.16 1566.34 2083.35 1592.06 C 2072.88 1626.52 2063.1 1664.84 2050.99 1698.92 C 2050.28 1700.9 2046.54 1703.03 2044.7 1704.07 C 2039.56 1704.92 2020.73 1707.3 2018.44 1699.84 C 2005.71 1658.38 1990.61 1612.39 1983.72 1569.84 C 1981.47 1555.96 2007.38 1520.43 2011.98 1507.75 C 2018.92 1476.8 2022.29 1441.07 2025.84 1411.24 z"/>
<path transform="translate(0,0)" fill="rgb(255,255,255)" d="M 2004.38 1701.77 L 2005.54 1701.83 C 2013.73 1709.56 2024.57 1713.86 2035.82 1713.85 C 2046.41 1713.83 2055.79 1709.01 2063.03 1701.54 C 2072.75 1702.35 2103.99 1705.42 2107.34 1715.14 C 2103.31 1722.43 2082.93 1725.47 2074.93 1727.12 C 2039.51 1731.94 1987.33 1732.95 1955.38 1714.25 C 1973.74 1705.42 1984.06 1703.79 2004.38 1701.77 z"/>
<path transform="translate(0,0)" fill="rgb(255,255,255)" d="M 2028.35 1357.94 C 2069.76 1358.08 2082.31 1393.4 2039.18 1403.72 C 1990.14 1404.4 1985.88 1365.33 2028.35 1357.94 z"/>
<path transform="translate(0,0)" fill="rgb(255,255,255)" d="M 1951.52 1722.89 C 1959.81 1725.46 1968.08 1729.11 1975.81 1730.81 C 2019.82 1740.49 2070.36 1741.05 2112.71 1724.5 C 2114.33 1723.87 2114.85 1724.94 2116.22 1726.13 L 2116.42 1732.02 C 2088.3 1753.25 1996.82 1750.01 1963.07 1738.1 C 1953.69 1734.79 1952.68 1731.73 1951.52 1722.89 z"/>
<path transform="translate(0,0)" fill="rgb(255,255,255)" d="M 2016.63 1754.51 C 2029.27 1754.91 2039.34 1754.89 2052.01 1754.71 C 2052.27 1764.58 2053.85 1767.35 2048.63 1775.05 C 2043.1 1778.65 2039.82 1780.4 2033.13 1780.03 C 2014.29 1779.01 2016.33 1768.98 2016.63 1754.51 z"/>
</svg>